<?xml version="1.0" encoding="UTF-8"?><svg id="_レイヤー_2" xmlns="http://www.w3.org/2000/svg" viewBox="0 0 76.41 99.37"><defs><style>.cls-1{fill:#ffeb3c;}.cls-1,.cls-2,.cls-3{stroke-width:0px;}.cls-2{fill:#fff;}.cls-3{fill:#28221c;}</style></defs><g id="_レイヤー_1-2"><path class="cls-2" d="M53.69,99.37c-.55,0-1.1-.05-1.65-.16-3.03-.6-5.48-2.75-6.56-5.76,0,0,0,0,0-.01l-1.52-4.25-4.12-1.84c-2.95-1.33-4.9-3.94-5.25-6.99-.22-1.77.14-3.58,1.04-5.2.6-1.07,1.42-2.01,2.43-2.79l3.58-2.75.47-4.49c.35-3.2,2.22-5.86,5-7.15,2.83-1.29,6.08-.98,8.71.83l3.71,2.54,4.42-.94c3.14-.66,6.26.29,8.35,2.55,2.09,2.26,2.8,5.44,1.9,8.51l-1.28,4.34,2.25,3.91c1.56,2.71,1.65,5.88.26,8.54-.03.07-.07.13-.11.2-1.5,2.69-4.31,4.35-7.5,4.44l-4.52.13-3.02,3.35c-.97,1.06-2.08,1.85-3.32,2.36-1.03.43-2.14.65-3.26.65ZM54.84,77.96c.43.37.81.78,1.14,1.24.48-.29.99-.53,1.53-.71-.13-.55-.2-1.11-.2-1.67-.56-.05-1.11-.16-1.65-.33-.22.52-.49,1.01-.82,1.47ZM47.33,71.17s.02.01.02.02l-.02-.02Z"/><path class="cls-2" d="M38.93,70.35c-1.22,0-2.44-.3-3.57-.9l-12.83-6.94c-1.92-1.04-3.29-2.85-3.75-4.98-.47-2.13,0-4.35,1.31-6.1l4.91-6.58c1.5-2.02,3.92-3.15,6.43-3.01,2.51.14,4.79,1.53,6.06,3.7l7.92,13.52c1.7,2.9,1.26,6.58-1.08,9-1.45,1.5-3.41,2.29-5.39,2.29Z"/><path class="cls-2" d="M8.64,83.9c-1.49,0-2.96-.44-4.21-1.29-1.81-1.23-3-3.19-3.24-5.37L.05,67.04c-.26-2.37.61-4.72,2.36-6.34,1.75-1.62,4.16-2.31,6.5-1.86l22.68,4.32c3.43.65,5.95,3.59,6.09,7.07s-2.15,6.61-5.52,7.53l-21.53,5.88c-.65.18-1.31.26-1.98.26Z"/><path class="cls-3" d="M53.68,95.87c-.33,0-.65-.03-.97-.09-1.81-.36-3.28-1.67-3.94-3.51,0,0,0,0,0,0l-2.02-5.67-5.49-2.45c-1.8-.81-2.99-2.38-3.2-4.2-.13-1.05.08-2.12.62-3.09.37-.66.87-1.24,1.51-1.73l4.76-3.67.63-5.98c.21-1.95,1.33-3.57,2.99-4.34,1.69-.77,3.65-.57,5.26.54l4.95,3.39,5.88-1.25c1.92-.4,3.81.16,5.06,1.51,1.25,1.35,1.66,3.27,1.11,5.15l-1.7,5.78,3,5.21c.96,1.66,1.02,3.57.19,5.16-.02.04-.04.08-.06.12-.9,1.6-2.6,2.59-4.55,2.65l-6.02.17-4.03,4.47c-.6.66-1.29,1.15-2.05,1.46-.62.26-1.28.39-1.94.39ZM48.67,78.69l2.9,1.29c1,.45,1.77,1.28,2.14,2.31l1.07,2.99,2.12-2.36c.73-.81,1.77-1.29,2.86-1.32l3.17-.09-.78-1.36s-.04-.07-.06-.1l-.75-1.29c-.55-.95-.68-2.08-.37-3.13l.44-1.48s0-.03.01-.05l.45-1.52-1.55.33s-.05.01-.08.02l-1.48.31c-1.07.23-2.19,0-3.09-.61l-1.26-.86s-.04-.02-.06-.04l-1.3-.89-.33,3.15c-.12,1.09-.67,2.08-1.54,2.75l-1.26.97s-.06.05-.09.07l-1.17.9ZM49.3,68.28s0,0,0,0h0Z"/><path class="cls-3" d="M38.93,66.85c-.65,0-1.3-.16-1.9-.48l-12.83-6.94c-1.02-.55-1.75-1.52-2-2.66-.25-1.13,0-2.32.7-3.25l4.91-6.58c.8-1.08,2.08-1.68,3.43-1.6,1.34.07,2.55.81,3.23,1.97l7.92,13.52c.91,1.55.67,3.51-.58,4.8-.77.8-1.82,1.22-2.88,1.22Z"/><path class="cls-3" d="M8.64,80.4c-.79,0-1.58-.24-2.25-.69-.97-.66-1.6-1.7-1.73-2.86l-1.14-10.2c-.14-1.26.33-2.52,1.26-3.38.93-.86,2.22-1.23,3.47-.99l22.68,4.32c1.83.35,3.18,1.91,3.25,3.77.07,1.86-1.15,3.52-2.94,4.02l-21.53,5.88c-.35.09-.7.14-1.05.14ZM12.08,71.15l.02.16.35-.09-.37-.07Z"/><path class="cls-1" d="M52.54,90.92l-2.59-7.28-7.06-3.15c-.5-.23-.81-.58-.86-1.01-.03-.23.02-.46.14-.67.1-.18.26-.36.46-.51l4.86-3.74s0,0,0,0l1.26-.97.81-7.68c.06-.55.3-.95.69-1.13.39-.18.86-.11,1.31.21l5.06,3.46h0s1.31.9,1.31.9l1.55-.33s0,0,0,0l6-1.27c.54-.11,1,0,1.29.31.29.31.36.78.21,1.31l-1.73,5.88s0,0,0,0l-.45,1.52.79,1.37s0,.01.01.02l3.06,5.3c.28.48.31.95.1,1.32h0c-.21.38-.63.59-1.18.61l-7.73.22-5.17,5.74c-.19.2-.39.35-.59.44-.21.09-.42.11-.63.07-.42-.08-.75-.41-.94-.93Z"/><polygon class="cls-1" points="38.93 62.85 31.02 49.33 26.11 55.91 38.93 62.85"/><polygon class="cls-1" points="30.18 70.52 7.5 66.2 8.64 76.4 30.18 70.52"/><path class="cls-2" d="M53.64,51c-.55,0-1-.45-1-1,0-2.76.03-4.14.06-5.52.03-1.37.06-2.74.06-5.48s.28-4.3.56-5.69c.27-1.37.52-2.65.52-5.31s-.05-4.12-.1-5.46c-.05-1.36-.1-2.77-.1-5.53,0-.55.45-1,1-1s1,.45,1,1c0,2.73.05,4.12.1,5.46.05,1.36.1,2.77.1,5.53s-.28,4.3-.56,5.69c-.27,1.37-.52,2.65-.52,5.31s-.03,4.14-.06,5.52c-.03,1.37-.06,2.74-.06,5.48,0,.55-.45,1-1,1Z"/><path class="cls-2" d="M63.52,47c-.55,0-1-.45-1-1,0-2.77-.11-4.12-.22-5.55-.11-1.4-.23-2.85-.23-5.71s.35-4.42.69-5.86c.33-1.39.64-2.7.64-5.4s-.1-4.12-.21-5.55c-.11-1.4-.22-2.85-.22-5.7s.07-4.28.14-5.67c.07-1.37.14-2.79.14-5.57,0-.55.45-1,1-1s1,.45,1,1c0,2.84-.07,4.28-.14,5.67-.07,1.37-.14,2.79-.14,5.58s.1,4.12.21,5.55c.11,1.4.22,2.85.22,5.7s-.35,4.42-.69,5.86c-.33,1.39-.64,2.7-.64,5.4s.11,4.12.22,5.55c.11,1.4.23,2.85.23,5.71,0,.55-.45,1-1,1Z"/><path class="cls-2" d="M72.39,51c-.55,0-1-.45-1-1,0-2.43-.06-3.66-.12-4.85-.06-1.22-.12-2.48-.12-4.95s.32-3.88.63-5.14c.29-1.2.57-2.33.57-4.66s-.15-3.54-.31-4.77c-.16-1.24-.32-2.51-.32-5.03s-.05-3.67-.09-4.86c-.05-1.21-.1-2.47-.1-4.94s.07-3.73.13-4.95c.06-1.19.13-2.42.13-4.84,0-.55.45-1,1-1s1,.45,1,1c0,2.48-.07,3.73-.13,4.95-.06,1.19-.13,2.42-.13,4.85s.05,3.67.09,4.86c.05,1.21.1,2.47.1,4.94s.15,3.54.31,4.77c.16,1.24.32,2.51.32,5.03s-.32,3.88-.63,5.14c-.29,1.2-.57,2.33-.57,4.67s.06,3.66.12,4.85c.06,1.22.12,2.48.12,4.95,0,.55-.45,1-1,1Z"/></g></svg>