<?xml version="1.0" encoding="UTF-8"?><svg id="_レイヤー_2" xmlns="http://www.w3.org/2000/svg" xmlns:xlink="http://www.w3.org/1999/xlink" viewBox="0 0 161.17 91.78"><defs><style>.cls-1{fill:url(#_名称未設定グラデーション_166);}.cls-1,.cls-2,.cls-3,.cls-4,.cls-5,.cls-6,.cls-7{stroke-width:0px;}.cls-2{fill:url(#_名称未設定グラデーション_166-2);}.cls-3{fill:url(#_名称未設定グラデーション_166-6);}.cls-4{fill:url(#_名称未設定グラデーション_166-5);}.cls-5{fill:url(#_名称未設定グラデーション_166-3);}.cls-6{fill:url(#_名称未設定グラデーション_166-4);}.cls-7{fill:#281d1c;}</style><linearGradient id="_名称未設定グラデーション_166" x1="12.58" y1="38.05" x2="39.05" y2="-7.79" gradientUnits="userSpaceOnUse"><stop offset="0" stop-color="#3a81ff"/><stop offset=".6" stop-color="#76c9ff"/><stop offset=".6" stop-color="#78c9ff"/><stop offset=".7" stop-color="#a7dcff"/><stop offset=".79" stop-color="#cdebff"/><stop offset=".87" stop-color="#e8f6ff"/><stop offset=".94" stop-color="#f9fcff"/><stop offset="1" stop-color="#fff"/></linearGradient><linearGradient id="_名称未設定グラデーション_166-2" x1="36.36" y1="51.78" x2="62.83" y2="5.94" xlink:href="#_名称未設定グラデーション_166"/><linearGradient id="_名称未設定グラデーション_166-3" x1="58.38" y1="64.5" x2="84.85" y2="18.65" xlink:href="#_名称未設定グラデーション_166"/><linearGradient id="_名称未設定グラデーション_166-4" x1="84.58" y1="79.62" x2="111.05" y2="33.78" xlink:href="#_名称未設定グラデーション_166"/><linearGradient id="_名称未設定グラデーション_166-5" x1="109.88" y1="94.23" x2="136.35" y2="48.39" xlink:href="#_名称未設定グラデーション_166"/><linearGradient id="_名称未設定グラデーション_166-6" x1="123.23" y1="101.94" x2="149.7" y2="56.09" xlink:href="#_名称未設定グラデーション_166"/></defs><g id="_レイヤー_1-2"><path class="cls-7" d="M18.91,46.29c-1.45,0-2.85-.58-3.88-1.6-.3-.3-.56-.63-.78-.99-.76.13-1.56.11-2.35-.1l-5.78-1.52c-1.46-.38-2.7-1.35-3.43-2.68-.73-1.33-.88-2.89-.41-4.33.7-2.18,1.41-5.47,1.68-7.83.04-.33.11-.66.2-.97-.22-.56-.34-1.17-.36-1.81l-.2-6.8c-.04-1.49.52-2.94,1.56-4,1.04-1.07,2.44-1.64,3.97-1.66.77,0,1.87-.02,3.28-.08,0-1.33.49-2.62,1.37-3.62.97-1.1,2.34-1.77,3.8-1.85l6.92-.41c1.45-.09,2.84.41,3.88,1.3,1.57-2.65,4.33-4.42,7.51-4.53,2.52-.09,4.9.79,6.73,2.47,1.87,1.72,2.95,4.1,3.04,6.71.1,2.91-1.02,5.63-3.09,7.44-1.04.91-2.25,1.54-3.58,1.89l.06,1.24c.04.68-.05,1.34-.25,1.96.94,1.3,2.19,2.85,3.64,4.5,1.93,2.2,1.8,5.52-.29,7.56l-4.45,4.34c-1.07,1.05-2.52,1.61-4.01,1.56-.87-.03-1.71-.26-2.46-.67-.56,2.36-2.64,4.14-5.16,4.23l-6.97.25c-.07,0-.13,0-.19,0ZM36.93,11.88c.35.32.65.68.9,1.08.09-.15.15-.31.16-.48.02-.31-.07-.63-.23-.91l-.2.08.2-.09s-.02-.04-.03-.05l-.79.37ZM35.56,10.95c.41.19.79.44,1.14.73.07.06.13.11.19.17l.79-.38c-.28-.45-.72-.79-1.06-.87-.2-.01-.63.05-1.07.35ZM36.65,10.61h0,0Z"/><path class="cls-7" d="M43.86,53.63c-2.36,0-4.51-1.52-5.24-3.85l-2.19-6.97c-.46-1.45-.29-3.02.46-4.35.75-1.32,2.01-2.28,3.48-2.64.93-.23,1.79-.46,2.6-.7-1.83-1.17-3.68-2.21-5.71-3.2-1.36-.66-2.39-1.86-2.84-3.3s-.29-3.01.45-4.33l3.13-5.57c1.34-2.38,4.22-3.42,6.77-2.44,3.93,1.51,7.83,3.8,10.43,6.13.44.39.8.84,1.08,1.32.75-.95,1.8-1.64,2.99-1.93,1.48-.37,3.05-.11,4.34.73l5.88,3.83c2.25,1.46,3.11,4.34,2.04,6.8-4.65,10.71-13.56,17.56-26.5,20.36-.39.08-.78.12-1.17.12Z"/><path class="cls-7" d="M86.08,53.8c-.56,0-1.13-.09-1.69-.27-3.1-1-6.58-2.13-10.1-3.28-3.34-1.09-6.71-2.19-9.83-3.2-1.43-.46-2.61-1.49-3.27-2.85-.65-1.36-.72-2.92-.19-4.33l2.54-6.72c.77-2.05,2.65-3.37,4.71-3.54-1.68-1.37-2.45-3.67-1.78-5.87l2.1-6.86c.44-1.43,1.44-2.62,2.78-3.3s2.89-.78,4.3-.28l20.15,7.07c2.83.99,4.34,4.06,3.4,6.91-1.02,3.11-5.2,15.3-7.95,22.89-.81,2.23-2.92,3.63-5.17,3.63Z"/><path class="cls-7" d="M97.35,69.76c-2.68,0-5.03-1.96-5.43-4.69l-1.04-6.96c-.23-1.51.19-3.05,1.14-4.25s2.36-1.94,3.89-2.05c.26-.02.52-.04.77-.07l-4.84-1.82c-2.81-1.06-4.26-4.18-3.24-7.01,1.09-3.03,3-7.09,4.3-9.65.67-1.3,1.82-2.29,3.22-2.74,1.39-.45,2.91-.32,4.21.35l5.09,2.64c.31.16.61.35.87.56.54.1,1.06.28,1.55.54l5.04,2.65c1.27.67,2.18,1.77,2.63,3.04,1.38-.04,2.73.42,3.79,1.33l5.16,4.44c2.17,1.87,2.54,5.08.87,7.4-7.13,9.83-15.28,14.69-27.26,16.23-.24.03-.47.05-.71.05Z"/><path class="cls-7" d="M122.96,81.15c-1.31,0-2.59-.47-3.59-1.33l-5.62-4.85c-1.11-.95-1.79-2.31-1.9-3.76-.11-1.46.37-2.9,1.33-4,1.72-1.99,2.4-2.79,4.07-4.77.29-.35.63-.66.99-.92.14-.21.3-.42.47-.62,1.5-1.69,2.84-2.86,4.25-3.66l-1.33-2.59c-1.23-2.39-.55-5.31,1.6-6.92,5.12-3.83,11.68-3.94,17.54-.29,1.14.7,2.21,1.52,3.18,2.41,3.8,3.5,4.78,7.18,4.94,9.64.21,3.34-.93,6.54-3.21,9.01-2.78,3.02-7,4.41-11.02,3.63-.48-.1-.84-.16-1.11-.2-.06.07-.11.13-.17.19-.2.23-.41.47-.64.74-.32.36-.68.67-1.06.93-.13.19-.27.37-.42.55-1.14,1.31-1.81,2.13-2.63,3.12-.42.51-.89,1.07-1.46,1.75-.95,1.13-2.3,1.83-3.77,1.95-.15.01-.3.02-.44.02Z"/><path class="cls-7" d="M130.31,91.78c-.55,0-1.1-.08-1.64-.25-1.41-.44-2.58-1.43-3.25-2.74l-3.63-7.08c-1.38-2.7-.32-6,2.37-7.39,1.26-.65,2.25-1.14,3.25-1.63.93-.46,1.86-.92,3.06-1.53.71-.37,1.48-.57,2.26-.61.31-.25.65-.47,1.01-.65,4.89-2.43,11.55-5.47,16.2-7.4,2.69-1.11,5.78.06,7.05,2.68l3.64,7.49c.68,1.4.74,3.02.15,4.47-.58,1.44-1.75,2.57-3.22,3.1-4.23,1.54-10.36,3.87-15.53,6.21-.49.22-.99.36-1.5.44-.4.42-.88.78-1.43,1.06-.89.46-1.63.84-2.33,1.19-1.23.62-2.32,1.18-3.87,2.01-.81.43-1.7.65-2.6.65Z"/><path class="cls-7" d="M18.41,45.59c-1.45,0-2.85-.58-3.88-1.6-.3-.3-.56-.63-.78-.99-.76.13-1.56.11-2.35-.1l-5.78-1.52c-1.46-.38-2.7-1.35-3.43-2.68-.73-1.33-.88-2.89-.41-4.33.7-2.18,1.41-5.47,1.68-7.83.04-.33.11-.66.2-.97-.22-.56-.34-1.17-.36-1.81l-.2-6.8c-.04-1.49.52-2.94,1.56-4,1.04-1.07,2.5-1.69,3.97-1.66.77,0,1.87-.02,3.28-.08,0-1.33.49-2.62,1.37-3.62.97-1.1,2.34-1.77,3.8-1.85l6.92-.41c1.45-.09,2.84.41,3.88,1.3,1.57-2.65,4.33-4.42,7.51-4.53,2.51-.08,4.9.79,6.73,2.47,1.87,1.72,2.95,4.1,3.04,6.71.1,2.91-1.02,5.63-3.09,7.44-1.04.91-2.25,1.54-3.58,1.89l.06,1.24c.04.68-.05,1.34-.25,1.96.94,1.3,2.19,2.85,3.64,4.5,1.93,2.2,1.8,5.52-.29,7.56l-4.45,4.34c-1.07,1.05-2.53,1.62-4.01,1.56-.87-.03-1.71-.26-2.46-.67-.56,2.36-2.64,4.14-5.16,4.23l-6.97.25c-.07,0-.13,0-.19,0ZM36.43,11.18c.35.32.65.68.9,1.08.09-.15.15-.31.16-.48.02-.31-.07-.63-.23-.91l-.2.08.2-.09s-.02-.04-.03-.05l-.79.37ZM35.06,10.25c.41.19.79.44,1.14.73.07.06.13.11.19.17l.79-.38c-.28-.45-.72-.79-1.06-.87-.2-.02-.63.05-1.07.35ZM36.15,9.91h0,0Z"/><path class="cls-7" d="M43.36,52.93c-2.36,0-4.51-1.52-5.24-3.85l-2.19-6.97c-.46-1.45-.29-3.02.46-4.35.75-1.32,2.01-2.28,3.48-2.64.93-.23,1.79-.46,2.6-.7-1.83-1.17-3.68-2.21-5.71-3.2-1.36-.66-2.39-1.86-2.84-3.3s-.29-3.01.45-4.33l3.13-5.57c1.34-2.38,4.22-3.42,6.77-2.44,3.93,1.51,7.83,3.8,10.43,6.13.44.39.8.84,1.08,1.32.75-.95,1.8-1.64,2.99-1.93,1.48-.37,3.05-.11,4.34.73l5.88,3.83c2.25,1.46,3.11,4.34,2.04,6.8-4.65,10.71-13.56,17.56-26.5,20.36-.39.08-.78.12-1.17.12Z"/><path class="cls-7" d="M85.58,53.1c-.56,0-1.13-.09-1.69-.27-3.1-1-6.58-2.13-10.1-3.28-3.34-1.09-6.71-2.19-9.83-3.2-1.43-.46-2.61-1.49-3.27-2.85-.65-1.36-.72-2.92-.19-4.33l2.54-6.72c.77-2.05,2.65-3.37,4.71-3.54-1.68-1.37-2.45-3.67-1.78-5.87l2.1-6.86c.44-1.43,1.44-2.62,2.78-3.3,1.34-.68,2.89-.78,4.3-.28l20.15,7.07c2.83.99,4.34,4.06,3.4,6.91-1.02,3.11-5.2,15.3-7.95,22.89-.81,2.23-2.92,3.63-5.17,3.63Z"/><path class="cls-7" d="M96.85,69.06c-2.68,0-5.03-1.96-5.43-4.69l-1.04-6.96c-.23-1.51.19-3.05,1.14-4.25s2.36-1.94,3.89-2.05c.26-.02.52-.04.77-.07l-4.84-1.82c-2.81-1.06-4.26-4.18-3.24-7.01,1.09-3.03,3-7.09,4.3-9.65.67-1.3,1.82-2.29,3.22-2.74,1.4-.45,2.91-.32,4.21.35l5.09,2.64c.31.16.61.35.87.56.54.1,1.06.28,1.55.54l5.04,2.65c1.27.67,2.18,1.77,2.63,3.04,1.39-.04,2.73.42,3.79,1.33l5.16,4.44c2.17,1.87,2.54,5.08.87,7.4-7.13,9.83-15.28,14.69-27.26,16.23-.24.03-.47.05-.71.05Z"/><path class="cls-7" d="M122.46,80.45c-1.31,0-2.59-.47-3.59-1.33l-5.62-4.85c-1.11-.95-1.79-2.31-1.9-3.76-.11-1.46.37-2.9,1.33-4,1.72-1.99,2.4-2.79,4.07-4.77.29-.35.63-.66.99-.92.14-.21.3-.42.47-.62,1.5-1.69,2.84-2.86,4.25-3.66l-1.33-2.59c-1.23-2.39-.55-5.31,1.6-6.92,5.12-3.83,11.68-3.94,17.54-.29,1.14.7,2.21,1.52,3.18,2.41,3.8,3.5,4.78,7.18,4.94,9.64.21,3.34-.93,6.54-3.21,9.01-2.78,3.02-7,4.41-11.02,3.63-.48-.1-.84-.16-1.11-.2-.06.07-.11.13-.17.19-.2.23-.41.47-.64.74-.32.36-.68.67-1.06.93-.13.19-.27.37-.42.55-1.14,1.31-1.81,2.13-2.63,3.12-.42.51-.89,1.07-1.46,1.75-.95,1.13-2.3,1.83-3.77,1.95-.15.01-.3.02-.44.02Z"/><path class="cls-7" d="M129.81,91.08c-.55,0-1.1-.08-1.64-.25-1.41-.44-2.58-1.43-3.25-2.74l-3.63-7.08c-1.38-2.7-.32-6,2.37-7.39,1.26-.65,2.25-1.14,3.25-1.63.93-.46,1.86-.92,3.06-1.53.71-.37,1.48-.57,2.26-.61.31-.25.65-.47,1.01-.65,4.89-2.43,11.55-5.47,16.2-7.4,2.69-1.11,5.78.06,7.05,2.68l3.64,7.49c.68,1.4.74,3.02.15,4.47-.58,1.44-1.75,2.57-3.22,3.1-4.23,1.54-10.36,3.87-15.53,6.21-.49.22-.99.36-1.5.44-.4.42-.88.78-1.43,1.06-.89.46-1.63.84-2.33,1.19-1.23.62-2.32,1.18-3.87,2.01-.81.43-1.7.65-2.6.65Z"/><path class="cls-7" d="M17.91,44.89c-1.45,0-2.85-.58-3.88-1.6-.3-.3-.56-.63-.78-.99-.76.13-1.56.11-2.35-.1l-5.78-1.52c-1.46-.38-2.7-1.35-3.43-2.68-.73-1.33-.88-2.89-.41-4.33.7-2.18,1.41-5.47,1.68-7.83.04-.33.11-.66.2-.97-.22-.56-.34-1.17-.36-1.81l-.2-6.8c-.04-1.49.52-2.94,1.56-4,1.04-1.06,2.46-1.66,3.94-1.66.06,0,.13,0,.2,0,.77,0,1.8-.03,3.11-.08,0-1.33.49-2.62,1.37-3.62.97-1.1,2.34-1.77,3.8-1.85l6.92-.41c1.45-.09,2.84.41,3.88,1.3,1.57-2.65,4.33-4.42,7.51-4.53,2.52-.09,4.9.79,6.73,2.47,1.87,1.72,2.95,4.1,3.04,6.71.1,2.91-1.02,5.63-3.09,7.44-1.04.91-2.25,1.54-3.58,1.89l.06,1.24c.04.68-.05,1.34-.25,1.96.94,1.3,2.19,2.85,3.64,4.5,1.93,2.2,1.8,5.52-.29,7.56l-4.45,4.34c-1.07,1.05-2.52,1.61-4.01,1.56-.87-.03-1.71-.26-2.46-.67-.56,2.36-2.64,4.14-5.16,4.23l-6.97.25c-.07,0-.13,0-.19,0ZM35.93,10.48c.35.32.65.68.9,1.08.09-.15.15-.31.16-.48.02-.31-.07-.63-.23-.91l-.2.08.2-.09s-.02-.04-.03-.05l-.79.37ZM34.56,9.55c.41.19.79.44,1.14.73.07.06.13.11.19.17l.79-.38c-.28-.45-.72-.79-1.06-.87-.2-.01-.63.05-1.07.35ZM35.65,9.21h0,0Z"/><path class="cls-7" d="M42.86,52.23c-2.36,0-4.51-1.52-5.24-3.85l-2.19-6.97c-.46-1.45-.29-3.02.46-4.35.75-1.32,2.01-2.28,3.48-2.64.93-.23,1.79-.46,2.6-.7-1.83-1.17-3.68-2.21-5.71-3.2-1.36-.66-2.39-1.86-2.84-3.3s-.29-3.01.45-4.33l3.13-5.57c1.34-2.38,4.22-3.42,6.77-2.44,3.93,1.51,7.83,3.8,10.43,6.13.44.39.8.84,1.08,1.32.75-.95,1.8-1.64,2.99-1.93,1.48-.37,3.05-.11,4.34.73l5.88,3.83c2.25,1.46,3.11,4.34,2.04,6.8-4.65,10.71-13.56,17.56-26.5,20.36-.39.08-.78.12-1.17.12Z"/><path class="cls-7" d="M85.08,52.4c-.56,0-1.13-.09-1.69-.27-3.1-1-6.58-2.13-10.1-3.28-3.34-1.09-6.71-2.19-9.83-3.2-1.43-.46-2.61-1.49-3.27-2.85-.65-1.36-.72-2.92-.19-4.33l2.54-6.72c.77-2.05,2.65-3.37,4.71-3.54-1.68-1.37-2.45-3.67-1.78-5.87l2.1-6.86c.44-1.43,1.44-2.62,2.78-3.3,1.34-.68,2.89-.78,4.3-.28l20.15,7.07c2.83.99,4.34,4.06,3.4,6.91-1.02,3.11-5.2,15.3-7.95,22.89-.81,2.23-2.92,3.63-5.17,3.63Z"/><path class="cls-7" d="M96.35,68.36c-2.68,0-5.03-1.96-5.43-4.69l-1.04-6.96c-.23-1.51.19-3.05,1.14-4.25s2.36-1.94,3.89-2.05c.26-.02.52-.04.77-.07l-4.84-1.82c-2.81-1.06-4.26-4.18-3.24-7.01,1.09-3.03,3-7.09,4.3-9.65.67-1.3,1.82-2.29,3.22-2.74,1.4-.45,2.91-.32,4.21.35l5.09,2.64c.31.16.61.35.87.56.54.1,1.06.28,1.55.54l5.04,2.65c1.27.67,2.18,1.77,2.63,3.04,1.38-.04,2.73.42,3.79,1.33l5.16,4.44c2.17,1.87,2.54,5.08.87,7.4-7.13,9.83-15.28,14.69-27.26,16.23-.24.03-.47.05-.71.05Z"/><path class="cls-7" d="M121.96,79.75c-1.31,0-2.59-.47-3.59-1.33l-5.62-4.85c-1.11-.95-1.79-2.31-1.9-3.76-.11-1.46.37-2.9,1.33-4,1.72-1.99,2.4-2.79,4.07-4.77.29-.35.63-.66.99-.92.14-.21.3-.42.47-.62,1.5-1.69,2.84-2.86,4.25-3.66l-1.33-2.59c-1.23-2.39-.55-5.31,1.6-6.92,5.12-3.83,11.68-3.94,17.54-.29,1.14.7,2.21,1.52,3.18,2.41,3.8,3.5,4.78,7.18,4.94,9.64.21,3.34-.93,6.54-3.21,9.01-2.78,3.02-7,4.41-11.02,3.63-.48-.1-.84-.16-1.11-.2-.06.07-.11.13-.17.19-.2.23-.41.47-.64.74-.32.36-.68.67-1.06.93-.13.19-.27.37-.42.55-1.14,1.31-1.81,2.13-2.63,3.12-.42.51-.89,1.07-1.46,1.75-.95,1.13-2.3,1.83-3.77,1.95-.15.01-.3.02-.44.02Z"/><path class="cls-7" d="M129.31,90.38c-.55,0-1.1-.08-1.64-.25-1.41-.44-2.58-1.43-3.25-2.74l-3.63-7.08c-1.38-2.7-.32-6,2.37-7.39,1.26-.65,2.25-1.14,3.25-1.63.93-.46,1.86-.92,3.06-1.53.71-.37,1.48-.57,2.26-.61.31-.25.65-.47,1.01-.65,4.89-2.43,11.55-5.47,16.2-7.4,2.68-1.11,5.78.06,7.05,2.68l3.64,7.49c.68,1.4.74,3.02.15,4.47-.58,1.44-1.75,2.57-3.22,3.1-4.23,1.54-10.36,3.87-15.53,6.21-.49.22-.99.36-1.5.44-.4.42-.88.78-1.43,1.06-.89.46-1.63.84-2.33,1.19-1.23.62-2.32,1.18-3.87,2.01-.81.43-1.7.65-2.6.65Z"/><path class="cls-7" d="M17.41,44.19c-1.45,0-2.85-.58-3.88-1.6-.3-.3-.56-.63-.78-.99-.76.13-1.56.11-2.35-.1l-5.78-1.52c-1.46-.38-2.7-1.35-3.43-2.68-.73-1.33-.88-2.89-.41-4.33.7-2.18,1.41-5.47,1.68-7.83.04-.33.11-.66.2-.97-.22-.56-.34-1.17-.36-1.81l-.2-6.8c-.04-1.49.52-2.94,1.56-4,1.04-1.07,2.45-1.7,3.97-1.66.78,0,1.87-.02,3.28-.08,0-1.33.49-2.62,1.37-3.62.97-1.1,2.34-1.77,3.8-1.85l6.92-.41c1.45-.09,2.84.41,3.88,1.3,1.57-2.65,4.33-4.42,7.51-4.53,2.52-.09,4.9.79,6.73,2.47,1.87,1.72,2.95,4.1,3.04,6.71.1,2.91-1.02,5.63-3.09,7.44-1.04.91-2.25,1.54-3.58,1.89l.06,1.24c.04.68-.05,1.34-.25,1.96.94,1.3,2.19,2.85,3.64,4.5,1.93,2.2,1.8,5.52-.29,7.56l-4.45,4.34c-1.07,1.05-2.52,1.62-4.01,1.56-.87-.03-1.71-.26-2.46-.67-.56,2.36-2.64,4.14-5.16,4.23l-6.97.25c-.07,0-.13,0-.19,0ZM35.43,9.78c.35.32.65.68.9,1.08.09-.15.15-.31.16-.48.02-.31-.07-.63-.23-.91l-.2.08.2-.09s-.02-.04-.03-.05l-.79.37ZM34.06,8.85c.41.19.79.44,1.14.73.07.06.13.11.19.17l.79-.38c-.28-.45-.72-.79-1.06-.87-.19-.02-.63.05-1.07.35ZM35.15,8.51h0,0Z"/><path class="cls-7" d="M42.36,51.53c-2.36,0-4.51-1.52-5.24-3.85l-2.19-6.97c-.46-1.45-.29-3.02.46-4.35.75-1.32,2.01-2.28,3.48-2.64.93-.23,1.79-.46,2.6-.7-1.83-1.17-3.68-2.21-5.71-3.2-1.36-.66-2.39-1.86-2.84-3.3s-.29-3.01.45-4.33l3.13-5.57c1.34-2.38,4.22-3.42,6.77-2.44,3.93,1.51,7.83,3.8,10.43,6.13.44.39.8.84,1.08,1.32.75-.95,1.8-1.64,2.99-1.93,1.48-.37,3.05-.11,4.34.73l5.88,3.83c2.25,1.46,3.11,4.34,2.04,6.8-4.65,10.71-13.56,17.56-26.5,20.36-.39.08-.78.12-1.17.12Z"/><path class="cls-7" d="M84.58,51.7c-.56,0-1.13-.09-1.69-.27-3.1-1-6.58-2.13-10.1-3.28-3.34-1.09-6.71-2.19-9.83-3.2-1.43-.46-2.61-1.49-3.27-2.85-.65-1.36-.72-2.92-.19-4.33l2.54-6.72c.77-2.05,2.65-3.37,4.71-3.54-1.68-1.37-2.45-3.67-1.78-5.87l2.1-6.86c.44-1.43,1.44-2.62,2.78-3.3,1.34-.68,2.89-.78,4.3-.28l20.15,7.07c2.83.99,4.34,4.06,3.4,6.91-1.02,3.11-5.2,15.3-7.95,22.89-.81,2.23-2.92,3.63-5.17,3.63Z"/><path class="cls-7" d="M95.85,67.66c-2.68,0-5.03-1.96-5.43-4.69l-1.04-6.96c-.23-1.51.19-3.05,1.14-4.25s2.36-1.94,3.89-2.05c.26-.02.52-.04.77-.07l-4.84-1.82c-2.81-1.06-4.26-4.18-3.24-7.01,1.09-3.03,3-7.09,4.3-9.65.67-1.3,1.82-2.29,3.22-2.74,1.4-.45,2.91-.32,4.21.35l5.09,2.64c.31.16.61.35.87.56.54.1,1.06.28,1.55.54l5.04,2.65c1.27.67,2.18,1.77,2.63,3.04,1.38-.05,2.73.42,3.79,1.33l5.16,4.44c2.17,1.87,2.54,5.08.87,7.4-7.13,9.83-15.28,14.69-27.26,16.23-.24.03-.47.05-.71.05Z"/><path class="cls-7" d="M121.46,79.05c-1.31,0-2.59-.47-3.59-1.33l-5.62-4.85c-1.11-.95-1.79-2.31-1.9-3.76-.11-1.46.37-2.9,1.33-4,1.72-1.99,2.4-2.79,4.07-4.77.29-.35.63-.66.99-.92.14-.21.3-.42.47-.62,1.5-1.69,2.84-2.86,4.25-3.66l-1.33-2.59c-1.23-2.39-.55-5.31,1.6-6.92,5.12-3.83,11.68-3.94,17.54-.29,1.14.7,2.21,1.52,3.18,2.41,3.8,3.5,4.78,7.18,4.94,9.64.21,3.34-.93,6.54-3.21,9.01-2.78,3.02-7,4.41-11.02,3.63-.48-.1-.84-.16-1.11-.2-.06.07-.11.13-.17.19-.2.23-.41.47-.64.74-.32.36-.68.67-1.06.93-.13.19-.27.37-.42.55-1.14,1.31-1.81,2.13-2.63,3.12-.42.51-.89,1.07-1.46,1.75-.95,1.13-2.3,1.83-3.77,1.95-.15.01-.3.02-.44.02Z"/><path class="cls-7" d="M128.81,89.68c-.55,0-1.1-.08-1.64-.25-1.41-.44-2.58-1.43-3.25-2.74l-3.63-7.08c-1.38-2.7-.32-6,2.37-7.39,1.26-.65,2.25-1.14,3.25-1.63.93-.46,1.86-.92,3.06-1.53.71-.37,1.48-.57,2.26-.61.31-.25.65-.47,1.01-.65,4.89-2.43,11.55-5.47,16.2-7.4,2.68-1.11,5.78.06,7.05,2.68l3.64,7.49c.68,1.4.74,3.02.15,4.47-.58,1.44-1.75,2.57-3.22,3.1-4.23,1.54-10.36,3.87-15.53,6.21-.49.22-.99.36-1.5.44-.4.42-.88.78-1.43,1.06-.89.46-1.63.84-2.33,1.19-1.23.62-2.32,1.18-3.87,2.01-.81.43-1.7.65-2.6.65Z"/><path class="cls-7" d="M16.91,43.49c-1.45,0-2.85-.58-3.88-1.6-.3-.3-.56-.63-.78-.99-.76.13-1.56.11-2.35-.1l-5.78-1.52c-1.46-.38-2.7-1.35-3.43-2.68-.73-1.33-.88-2.89-.41-4.33.7-2.18,1.41-5.47,1.68-7.83.04-.33.11-.66.2-.97-.22-.56-.34-1.17-.36-1.81l-.2-6.8c-.04-1.49.52-2.94,1.56-4s2.5-1.68,3.97-1.66c.77,0,1.88-.02,3.28-.08,0-1.33.49-2.62,1.37-3.62.97-1.1,2.34-1.77,3.8-1.85l6.92-.41c1.45-.09,2.84.41,3.88,1.3C27.94,1.89,30.7.12,33.88,0c2.52-.08,4.9.79,6.73,2.47,1.87,1.72,2.95,4.1,3.04,6.71.1,2.91-1.02,5.63-3.09,7.44-1.04.91-2.25,1.54-3.58,1.89l.06,1.24c.04.68-.05,1.34-.25,1.96.94,1.3,2.19,2.85,3.64,4.5,1.93,2.2,1.8,5.52-.29,7.56l-4.45,4.34c-1.07,1.05-2.52,1.62-4.01,1.56-.87-.03-1.71-.26-2.46-.67-.56,2.36-2.64,4.14-5.16,4.23l-6.97.25c-.07,0-.13,0-.19,0ZM34.93,9.08c.35.32.65.68.9,1.08.09-.15.15-.31.16-.48.02-.31-.07-.63-.23-.91l-.2.08.2-.09s-.02-.04-.03-.05l-.79.37ZM33.56,8.15c.41.19.79.44,1.14.73.07.06.13.11.19.17l.79-.38c-.28-.45-.72-.79-1.06-.87-.2-.02-.63.06-1.07.35ZM34.65,7.81h0,0Z"/><path class="cls-7" d="M41.86,50.83c-2.36,0-4.51-1.52-5.24-3.85l-2.19-6.97c-.46-1.45-.29-3.02.46-4.35.75-1.32,2.01-2.28,3.48-2.64.93-.23,1.79-.46,2.6-.7-1.83-1.17-3.68-2.21-5.71-3.2-1.36-.66-2.39-1.86-2.84-3.3s-.29-3.01.45-4.33l3.13-5.57c1.34-2.38,4.22-3.42,6.77-2.44,3.93,1.51,7.83,3.8,10.43,6.13.44.39.8.84,1.08,1.32.75-.95,1.8-1.64,2.99-1.93,1.48-.37,3.05-.11,4.34.73l5.88,3.83c2.25,1.46,3.11,4.34,2.04,6.8-4.65,10.71-13.56,17.56-26.5,20.36-.39.08-.78.12-1.17.12Z"/><path class="cls-7" d="M84.08,51c-.56,0-1.13-.09-1.69-.27-3.1-1-6.58-2.13-10.1-3.28-3.34-1.09-6.71-2.19-9.83-3.2-1.43-.46-2.61-1.49-3.27-2.85-.65-1.36-.72-2.92-.19-4.33l2.54-6.72c.77-2.05,2.65-3.37,4.71-3.54-1.68-1.37-2.45-3.67-1.78-5.87l2.1-6.86c.44-1.43,1.44-2.62,2.78-3.3,1.34-.68,2.89-.78,4.3-.28l20.15,7.07c2.83.99,4.34,4.06,3.4,6.91-1.02,3.11-5.2,15.3-7.95,22.89-.81,2.23-2.92,3.63-5.17,3.63Z"/><path class="cls-7" d="M95.35,66.96c-2.68,0-5.03-1.96-5.43-4.69l-1.04-6.96c-.23-1.51.19-3.05,1.14-4.25s2.36-1.94,3.89-2.05c.26-.02.52-.04.77-.07l-4.84-1.82c-2.81-1.06-4.26-4.18-3.24-7.01,1.09-3.03,3-7.09,4.3-9.65.67-1.3,1.82-2.29,3.22-2.74,1.39-.45,2.91-.32,4.21.35l5.09,2.64c.31.16.61.35.87.56.54.1,1.06.28,1.55.54l5.04,2.65c1.27.67,2.18,1.77,2.63,3.04,1.39-.05,2.73.42,3.79,1.33l5.16,4.44c2.17,1.87,2.54,5.08.87,7.4-7.13,9.83-15.28,14.69-27.26,16.23-.24.03-.47.05-.71.05Z"/><path class="cls-7" d="M120.96,78.35c-1.31,0-2.59-.47-3.59-1.33l-5.62-4.85c-1.11-.95-1.79-2.31-1.9-3.76-.11-1.46.37-2.9,1.33-4,1.72-1.99,2.4-2.79,4.07-4.77.29-.35.63-.66.99-.92.14-.21.3-.42.47-.62,1.5-1.69,2.84-2.86,4.25-3.66l-1.33-2.59c-1.23-2.39-.55-5.31,1.6-6.92,5.12-3.83,11.68-3.94,17.54-.29,1.14.7,2.21,1.52,3.18,2.41,3.8,3.5,4.78,7.18,4.94,9.64.21,3.34-.93,6.54-3.21,9.01-2.78,3.02-7,4.41-11.02,3.63-.48-.1-.84-.16-1.11-.2-.06.07-.11.13-.17.19-.2.23-.41.47-.64.74-.32.36-.68.67-1.06.93-.13.19-.27.37-.42.55-1.14,1.31-1.81,2.13-2.63,3.12-.42.51-.89,1.07-1.46,1.75-.95,1.13-2.3,1.83-3.77,1.95-.15.01-.3.02-.44.02Z"/><path class="cls-7" d="M128.31,88.98c-.55,0-1.1-.08-1.64-.25-1.41-.44-2.58-1.43-3.25-2.74l-3.63-7.08c-1.38-2.7-.32-6,2.37-7.39,1.26-.65,2.25-1.14,3.25-1.63.93-.46,1.86-.92,3.06-1.53.71-.37,1.48-.57,2.26-.61.31-.25.65-.47,1.01-.65,4.89-2.43,11.55-5.47,16.2-7.4,2.68-1.11,5.78.06,7.05,2.68l3.64,7.49c.68,1.4.74,3.02.15,4.47-.58,1.44-1.75,2.57-3.22,3.1-4.23,1.54-10.36,3.87-15.53,6.21-.49.22-.99.36-1.5.44-.4.42-.88.78-1.43,1.06-.89.46-1.63.84-2.33,1.19-1.23.62-2.32,1.18-3.87,2.01-.81.43-1.7.65-2.6.65Z"/><path class="cls-1" d="M5.5,33.97c.84-2.62,1.61-6.29,1.91-8.89l5.85,1.23c-.41,2.8-1.17,6.52-1.97,9.18l-5.78-1.52ZM16.47,21.14c-3.31.2-6.62.32-9.19.37l-.2-6.8c2.03.01,5.41-.15,9.07-.36-.12-2.21-.18-4.01-.26-5.2l6.92-.41c.13,1.47.23,3.23.34,5.12,3.65-.29,6.76-.57,8.04-.74l.36,6.92c-1.09.12-4.23.4-8.08.66.29,7.01.46,14.18.41,17.06l-6.97.25c.09-2.88-.17-10.17-.44-16.85ZM26.21,26.63l4.91-3.5c1.45,2.33,3.68,5,5.19,6.71l-4.45,4.34c-1.87-2.07-3.84-4.91-5.65-7.55ZM33.73,13.23c-4.98-.81-3.7-7.58.35-7.73,2.14-.08,3.99,1.5,4.07,3.88.08,2.21-1.4,4.36-4.42,3.85ZM35.56,8.85c-.85-1.98-3.09-.3-2.46,1.07.29.6.77.83,1.2.82.86-.03,1.68-.92,1.26-1.89Z"/><path class="cls-2" d="M37.67,24.18l3.13-5.57c3.02,1.16,6.49,3.09,8.73,5.09l-3.28,5.55c-2.62-1.85-5.37-3.51-8.58-5.07ZM39.68,38.36c11.15-2.73,14.72-6.42,18.92-14.04l5.88,3.83c-4.21,9.69-12.2,14.92-22.61,17.17l-2.19-6.97Z"/><path class="cls-5" d="M66.69,32.31l12.97,4.32,3.42-9.62-13.34-4.44,2.1-6.86,20.15,7.07c-1.06,3.23-5.2,15.29-7.9,22.73-6.04-1.95-13.52-4.41-19.93-6.48l2.54-6.72Z"/><path class="cls-6" d="M95.8,32.98l5.09,2.64c-1.32,2.6-2.74,6-3.63,8.43l-5.48-2.06c.9-2.51,2.62-6.26,4.02-9.01ZM94.32,54.5c8.71-.65,13.88-4.55,19.39-11.49l5.16,4.44c-6.45,8.9-13.46,12.71-23.5,14l-1.04-6.96ZM103.28,36.7l5.04,2.65c-1.05,2.24-2.36,5.37-3.23,7.81l-5.46-2.09c.88-2.48,2.27-5.66,3.65-8.37Z"/><path class="cls-4" d="M119.46,63.16l5.65,4.76c-1.74,2.02-2.43,2.89-4.15,4.93l-5.62-4.85c1.74-2.02,2.44-2.83,4.12-4.84ZM132.17,58.43c2.3.11,2.86-1.04,2.86-1.6.08-2.15-4.21-4.38-7.53-1.69l-3-5.83c4.11-3.07,8.54-1.77,11.34-.03.92.57,1.7,1.18,2.37,1.79,4.22,3.89,3.77,8.32,1.41,10.88-1.39,1.51-3.7,2.39-5.92,1.96-4.65-.94-4.79-.12-7.09,2.5l-5.79-4.67c3.02-3.4,4.14-3.65,11.35-3.31Z"/><path class="cls-3" d="M130.99,73.23l3.59,7.01c-2.48,1.28-3.81,1.92-6.27,3.24l-3.63-7.08c2.44-1.26,3.83-1.88,6.31-3.16ZM150.03,64.78l3.64,7.49c-5.11,1.86-10.98,4.13-15.91,6.36l-3.58-6.61c5.18-2.57,11.68-5.51,15.85-7.24Z"/></g></svg>