<?xml version="1.0" encoding="UTF-8"?><svg id="_レイヤー_2" xmlns="http://www.w3.org/2000/svg" xmlns:xlink="http://www.w3.org/1999/xlink" viewBox="0 0 153.63 98.86"><defs><style>.cls-1{fill:url(#_名称未設定グラデーション_17-2);}.cls-1,.cls-2,.cls-3,.cls-4,.cls-5,.cls-6,.cls-7,.cls-8,.cls-9,.cls-10,.cls-11,.cls-12,.cls-13{stroke-width:0px;}.cls-2{fill:url(#_名称未設定グラデーション_17-5);}.cls-3{fill:url(#_名称未設定グラデーション_17-4);}.cls-4{fill:url(#_名称未設定グラデーション_17-7);}.cls-5{fill:url(#_名称未設定グラデーション_17-6);}.cls-6{fill:url(#_名称未設定グラデーション_17-3);}.cls-7{fill:url(#_名称未設定グラデーション_17-9);}.cls-8{fill:url(#_名称未設定グラデーション_17-8);}.cls-9{fill:url(#_名称未設定グラデーション_17);}.cls-10{fill:url(#_名称未設定グラデーション_17-11);}.cls-11{fill:url(#_名称未設定グラデーション_17-10);}.cls-12{fill:#fff;}.cls-13{fill:#28221c;}</style><linearGradient id="_名称未設定グラデーション_17" x1="21.83" y1="90.06" x2="21.83" y2="6" gradientUnits="userSpaceOnUse"><stop offset="0" stop-color="#ff5da5"/><stop offset=".15" stop-color="#ff75b8"/><stop offset=".5" stop-color="#ffabe2"/><stop offset=".7" stop-color="#ffd2ef"/><stop offset=".89" stop-color="#fff0fa"/><stop offset="1" stop-color="#fffcff"/></linearGradient><linearGradient id="_名称未設定グラデーション_17-2" x1="57.12" x2="57.12" xlink:href="#_名称未設定グラデーション_17"/><linearGradient id="_名称未設定グラデーション_17-3" x1="93.49" x2="93.49" xlink:href="#_名称未設定グラデーション_17"/><linearGradient id="_名称未設定グラデーション_17-4" x1="55.26" x2="55.26" xlink:href="#_名称未設定グラデーション_17"/><linearGradient id="_名称未設定グラデーション_17-5" x1="79.62" x2="79.62" xlink:href="#_名称未設定グラデーション_17"/><linearGradient id="_名称未設定グラデーション_17-6" x1="103.51" x2="103.51" xlink:href="#_名称未設定グラデーション_17"/><linearGradient id="_名称未設定グラデーション_17-7" x1="126.93" x2="126.93" xlink:href="#_名称未設定グラデーション_17"/><linearGradient id="_名称未設定グラデーション_17-8" x1="142.96" x2="142.96" xlink:href="#_名称未設定グラデーション_17"/><linearGradient id="_名称未設定グラデーション_17-9" x1="21.24" x2="21.24" xlink:href="#_名称未設定グラデーション_17"/><linearGradient id="_名称未設定グラデーション_17-10" x1="57.18" x2="57.18" xlink:href="#_名称未設定グラデーション_17"/><linearGradient id="_名称未設定グラデーション_17-11" x1="93.75" x2="93.75" xlink:href="#_名称未設定グラデーション_17"/></defs><g id="_レイヤー_1-2"><circle class="cls-12" cx="21.24" cy="32.31" r="4.4"/><circle class="cls-12" cx="57.18" cy="21.38" r="4.4"/><circle class="cls-12" cx="93.75" cy="10.4" r="4.4"/><path class="cls-13" d="M8.39,88.03c-1.27,0-2.53-.41-3.58-1.18-1.52-1.13-2.42-2.92-2.42-4.82v-16.23c0-1.73.74-3.32,1.95-4.43v-1.83c-1.48-1.13-2.34-2.89-2.34-4.76v-5.55c0-2.64,1.73-4.98,4.26-5.74l9.44-2.85c.74-.95,1.77-1.68,2.99-2.04l6.81-2.06c1.2-.36,2.46-.34,3.62.05l8.81-2.66c1.82-.55,3.79-.21,5.31.93s2.42,2.92,2.42,4.82v5.55c0,1.9-.9,3.65-2.34,4.76v2.06c1.24,1.13,1.95,2.74,1.95,4.43v16.23c0,2.64-1.73,4.98-4.26,5.74l-6.64,2.01c-1.26.38-2.59.33-3.79-.11l-10.75,3.25c-.75,1.02-1.82,1.81-3.1,2.19l-6.6,2c-.57.17-1.15.26-1.74.26ZM39.27,72.69h0,0Z"/><path class="cls-13" d="M47.05,76.23c-1.27,0-2.53-.41-3.58-1.18-1.53-1.13-2.42-2.92-2.42-4.82v-6.74c-.54-.2-1.05-.47-1.52-.82-1.53-1.13-2.42-2.92-2.42-4.82v-14.02c0-2.53,1.59-4.78,3.94-5.64v-1.83c0-2.64,1.73-4.98,4.26-5.74l6.04-1.83c.85-.25,1.73-.32,2.58-.2.39-.23.81-.41,1.26-.54l4.69-1.42c.57-.44,1.23-.79,1.95-1.01l6.57-1.99c1.82-.55,3.79-.21,5.31.92.58.43,1.08.96,1.46,1.56,1.26,0,2.5.41,3.54,1.18,1.52,1.13,2.42,2.92,2.42,4.82v6.61c0,1.21-.36,2.35-1,3.31.14.51.22,1.05.22,1.6v6.57c0,.42-.04.83-.13,1.23.59.94.91,2.04.91,3.17v6.69c0,2.64-1.73,4.98-4.26,5.74l-18.32,5.54c-.47.14-.96.23-1.44.25-.64.58-1.42,1.03-2.29,1.29l-6.04,1.83c-.57.17-1.16.26-1.74.26ZM75.13,61.32h0,0Z"/><path class="cls-13" d="M80.42,66.17c-1.27,0-2.53-.41-3.58-1.18-1.52-1.13-2.42-2.92-2.42-4.82v-20.14c-.5-.89-.78-1.91-.78-2.96v-6c0-.82.17-1.64.5-2.4l2.31-5.3c.7-1.61,2.08-2.84,3.76-3.35l6.46-1.95c1.03-.31,2.09-.34,3.1-.1l3.64-1.1c.7-.75,1.6-1.32,2.63-1.63l6.57-1.99c1.01-.31,2.08-.34,3.08-.1l3.02-1.47c1.86-.91,4.05-.79,5.81.31,1.75,1.1,2.82,3.02,2.82,5.09v6.19c0,.57-.08,1.12-.23,1.65.15.53.23,1.09.23,1.65v6.38c0,.26-.02.51-.05.76.03.25.05.5.05.76v6.23c0,.55-.07,1.08-.22,1.6.14.51.22,1.05.22,1.6v6.5c0,2.64-1.73,4.98-4.26,5.74l-12.99,3.93c-.57.44-1.23.79-1.95,1.01l-6.64,2.01c-.47.14-.95.23-1.43.25-.41.25-.86.44-1.33.59l-6.57,1.99c-.57.17-1.15.26-1.74.26ZM111.33,50.4h0,0Z"/><path class="cls-13" d="M56.19,98.86c-4.14,0-6.75-1.63-8.24-3.04-2.2-2.1-3.42-5.13-3.42-8.53,0-.22,0-.44.01-.65-.54-.15-1.05-.38-1.54-.68-1.67-1.04-2.73-2.85-2.82-4.82l-.22-4.93c-.12-2.7,1.58-5.15,4.15-5.98,1.12-.36,1.51-.5,5.01-1.82,5.22-1.96,10.71-3.81,16.03-5.6l.11-.04c1.81-.61,3.79-.32,5.35.77,1.56,1.09,2.51,2.86,2.56,4.76l.12,4.59c.01.51-.04,1.01-.15,1.49.23.38.44.75.64,1.1,1.37,2.48.83,5.57-1.3,7.44l-1.44,1.26c.24.77.32,1.6.23,2.42l-.57,5.2c-.26,2.37-1.9,4.36-4.18,5.07-3.57,1.11-6.41,1.83-9.54,1.98-.27.01-.54.02-.8.02Z"/><path class="cls-13" d="M75.66,94.31c-2.46,0-4.75-1.52-5.64-3.95l-1.34-3.69c-.57-1.56-.46-3.29.29-4.77.15-.3.33-.58.53-.85-.25-.82-.4-1.68-.46-2.58-.58-.2-1.14-.49-1.65-.86-1.52-1.13-2.42-2.92-2.42-4.82v-4.25c0-2.64,1.73-4.98,4.26-5.74l6.93-2.1c.67-1.62,2.04-2.91,3.8-3.44l4.45-1.34c1.72-.52,3.58-.24,5.07.75l1.07-.32c1.82-.55,3.79-.21,5.31.92,1.53,1.13,2.42,2.92,2.42,4.82v4.25c0,2.64-1.73,4.98-4.26,5.74l-1.87.57v.42c.15.77.32,1.9.32,3.3,0,3.06-.82,8.84-6.31,13.23-2.19,1.75-5.08,3.23-8.6,4.4-.63.21-1.27.31-1.9.31Z"/><path class="cls-13" d="M98.32,87.11c-.4,0-.81-.04-1.22-.13l-4.22-.88c-1.82-.38-3.35-1.57-4.17-3.24s-.82-3.61,0-5.28c.58-1.18,1.31-2.95,2.05-5.47-1.15-1.12-1.82-2.67-1.82-4.3v-4.44c0-2.62,1.7-4.93,4.19-5.72,0-.08,0-.17.01-.26.11-2.67,1.97-4.95,4.57-5.58l4.55-1.11c1.89-.46,3.88.02,5.35,1.29.15.13.29.26.42.4l1.6-1.29c2.57-2.07,6.35-1.68,8.43.9,4.32,5.33,4.67,11.21,4.86,14.37.14,2.41-1.18,4.68-3.35,5.74l-3.89,1.91c-.22,1.03-.5,2.07-.87,3.04-1.51,3.99-4.37,6.57-8.71,7.88-1.44.44-2.78.7-3.34.79-.23.04-.47.06-.7.07-1.05.83-2.37,1.3-3.73,1.3Z"/><path class="cls-13" d="M121.48,79.86c-1.23,0-2.44-.38-3.46-1.1-1.39-.98-2.29-2.5-2.49-4.19l-.45-3.72c-.82-1.05-1.29-2.35-1.29-3.71,0-2.84.06-7.15.61-11.78.24-2.05,1.52-3.8,3.32-4.68l.3-1.76c.39-2.29,2.07-4.15,4.31-4.77,5.05-1.4,8.77-1.97,12.84-1.97h.02c1.8,0,3.5.81,4.64,2.2,1.14,1.39,1.59,3.22,1.24,4.98l-.59,2.94c2.29,2.03,3.59,5.14,3.59,8.65,0,12.51-12.41,16.27-16.49,17.5-2.25.68-3.82,1.05-4.79,1.27-.44.1-.88.15-1.32.15Z"/><path class="cls-13" d="M142.48,73.17c-1.27,0-2.53-.41-3.58-1.18-1.52-1.13-2.42-2.92-2.42-4.82v-4.93c0-.78.15-1.53.42-2.22l-.61-15.56c-.11-2.73,1.64-5.19,4.26-5.98l5.35-1.62c1.86-.56,3.87-.19,5.4.99,1.53,1.19,2.4,3.04,2.33,4.98l-.6,15.7c.27.69.42,1.43.42,2.2v4.93c0,2.64-1.73,4.98-4.26,5.74l-4.96,1.5c-.57.17-1.16.26-1.74.26Z"/><path class="cls-13" d="M23.23,45.51c-1.65,0-3.28-.39-4.78-1.17-2.46-1.28-4.28-3.44-5.12-6.09h0c-1.73-5.47,1.31-11.32,6.77-13.05,2.65-.84,5.46-.6,7.93.68,2.46,1.28,4.28,3.44,5.12,6.09.84,2.65.6,5.46-.68,7.93s-3.44,4.28-6.09,5.12c-1.03.33-2.09.49-3.15.49ZM23.23,33.51c-.16,0-.33.02-.48.07-.4.13-.74.42-.94.79-.19.37-.23.82-.11,1.22.27.84,1.17,1.31,2.01,1.04.4-.13.75-.42.94-.79s.23-.82.11-1.22c0,0,0,0,0,0-.13-.4-.42-.75-.79-.94-.23-.12-.48-.18-.74-.18Z"/><path class="cls-13" d="M59.17,34.58c-1.65,0-3.28-.4-4.78-1.17-2.46-1.28-4.28-3.44-5.12-6.09h0c-1.73-5.47,1.31-11.32,6.77-13.05,5.47-1.73,11.32,1.31,13.05,6.77.84,2.65.6,5.46-.68,7.93-1.28,2.46-3.44,4.28-6.09,5.12-1.03.33-2.09.49-3.15.49ZM59.18,22.58c-.16,0-.33.02-.48.07-.4.13-.75.42-.94.79s-.23.82-.11,1.22c.27.84,1.17,1.31,2.01,1.04.84-.27,1.31-1.17,1.05-2.01,0,0,0,0,0,0-.13-.4-.42-.75-.79-.94-.23-.12-.48-.18-.74-.18Z"/><path class="cls-13" d="M95.73,23.6c-1.65,0-3.28-.39-4.78-1.17-2.46-1.28-4.28-3.44-5.12-6.09h0c-1.73-5.47,1.31-11.32,6.77-13.05,5.46-1.73,11.32,1.31,13.05,6.77.84,2.65.6,5.46-.68,7.93-1.28,2.46-3.44,4.28-6.09,5.12-1.03.33-2.09.49-3.15.49ZM95.74,11.6c-.16,0-.33.02-.48.07-.84.27-1.31,1.17-1.04,2.01.27.84,1.17,1.31,2.01,1.04.4-.13.75-.42.94-.79s.23-.82.11-1.22c0,0,0,0,0,0-.13-.4-.42-.75-.79-.94-.23-.12-.48-.18-.74-.18Z"/><path class="cls-13" d="M7.89,87.33c-1.27,0-2.53-.41-3.58-1.18-1.52-1.13-2.42-2.92-2.42-4.82v-16.23c0-1.73.74-3.32,1.95-4.43v-1.83c-1.48-1.13-2.34-2.89-2.34-4.76v-5.55c0-2.64,1.73-4.98,4.26-5.74l9.44-2.85c.74-.95,1.77-1.68,2.99-2.04l6.81-2.06c1.2-.36,2.46-.34,3.62.05l8.81-2.66c1.82-.55,3.79-.21,5.31.93s2.42,2.92,2.42,4.82v5.55c0,1.9-.9,3.65-2.34,4.76v2.06c1.24,1.13,1.95,2.74,1.95,4.43v16.23c0,2.64-1.73,4.98-4.26,5.74l-6.64,2.01c-1.26.38-2.59.33-3.79-.11l-10.75,3.25c-.75,1.02-1.82,1.81-3.1,2.19l-6.6,2c-.57.17-1.15.26-1.74.26ZM38.77,71.99h0,0Z"/><path class="cls-13" d="M46.55,75.53c-1.27,0-2.53-.41-3.58-1.18-1.53-1.13-2.42-2.92-2.42-4.82v-6.74c-.54-.2-1.05-.47-1.52-.82-1.53-1.13-2.42-2.92-2.42-4.82v-14.02c0-2.53,1.59-4.78,3.94-5.64v-1.83c0-2.64,1.73-4.98,4.26-5.74l6.04-1.83c.85-.26,1.73-.32,2.58-.2.39-.23.81-.41,1.26-.54l4.69-1.42c.57-.44,1.23-.79,1.95-1.01l6.57-1.99c1.82-.55,3.79-.21,5.31.92.58.43,1.08.96,1.46,1.56,1.26,0,2.5.41,3.54,1.18,1.52,1.13,2.42,2.92,2.42,4.82v6.61c0,1.21-.36,2.35-1,3.31.14.51.22,1.05.22,1.6v6.57c0,.42-.04.83-.13,1.23.59.94.91,2.04.91,3.17v6.69c0,2.64-1.73,4.98-4.26,5.74l-18.32,5.54c-.47.14-.96.23-1.44.25-.64.58-1.42,1.03-2.29,1.29l-6.04,1.83c-.57.17-1.16.26-1.74.26ZM74.63,60.62h0,0Z"/><path class="cls-13" d="M79.92,65.47c-1.27,0-2.53-.41-3.58-1.18-1.52-1.13-2.42-2.92-2.42-4.82v-20.14c-.5-.89-.78-1.91-.78-2.96v-6c0-.82.17-1.64.5-2.4l2.31-5.3c.7-1.61,2.08-2.84,3.76-3.35l6.46-1.95c1.03-.31,2.09-.34,3.1-.1l3.64-1.1c.7-.75,1.6-1.32,2.63-1.63l6.57-1.99c1.01-.31,2.08-.34,3.08-.1l3.02-1.47c1.86-.91,4.05-.79,5.81.31,1.75,1.1,2.82,3.02,2.82,5.09v6.19c0,.57-.08,1.12-.23,1.65.15.53.23,1.09.23,1.65v6.38c0,.26-.02.51-.05.76.03.25.05.5.05.76v6.23c0,.55-.07,1.08-.22,1.6.14.51.22,1.05.22,1.6v6.5c0,2.64-1.73,4.98-4.26,5.74l-12.99,3.93c-.57.44-1.23.79-1.95,1.01l-6.64,2.01c-.47.14-.95.23-1.43.25-.41.25-.86.44-1.33.59l-6.57,1.99c-.57.17-1.15.26-1.74.26ZM110.83,49.7h0,0Z"/><path class="cls-13" d="M55.69,98.16c-4.14,0-6.75-1.63-8.24-3.04-2.2-2.1-3.42-5.13-3.42-8.53,0-.22,0-.44.01-.65-.54-.15-1.05-.38-1.54-.68-1.67-1.04-2.73-2.85-2.82-4.82l-.22-4.93c-.12-2.7,1.58-5.15,4.15-5.98,1.12-.36,1.51-.5,5.01-1.82,5.22-1.96,10.71-3.81,16.03-5.6l.11-.04c1.81-.61,3.79-.32,5.35.77,1.56,1.09,2.51,2.86,2.56,4.76l.12,4.59c.01.51-.04,1.01-.15,1.49.23.38.44.75.64,1.1,1.37,2.48.83,5.57-1.3,7.44l-1.44,1.26c.24.77.32,1.6.23,2.42l-.57,5.2c-.26,2.37-1.9,4.36-4.18,5.07-3.57,1.11-6.41,1.83-9.54,1.98-.27.01-.54.02-.8.02Z"/><path class="cls-13" d="M75.16,93.61c-2.46,0-4.75-1.52-5.64-3.95l-1.34-3.69c-.57-1.56-.46-3.29.29-4.77.15-.3.33-.58.53-.85-.25-.82-.4-1.68-.46-2.58-.58-.2-1.14-.49-1.65-.86-1.52-1.13-2.42-2.92-2.42-4.82v-4.25c0-2.64,1.73-4.98,4.26-5.74l6.93-2.1c.67-1.62,2.04-2.91,3.8-3.44l4.45-1.34c1.72-.52,3.58-.24,5.07.75l1.07-.32c1.82-.55,3.79-.21,5.31.92,1.53,1.13,2.42,2.92,2.42,4.82v4.25c0,2.64-1.73,4.98-4.26,5.74l-1.87.57v.42c.15.77.32,1.9.32,3.3,0,3.06-.82,8.84-6.31,13.23-2.19,1.75-5.08,3.23-8.6,4.4-.63.21-1.27.31-1.9.31Z"/><path class="cls-13" d="M97.82,86.41c-.4,0-.81-.04-1.22-.13l-4.22-.88c-1.82-.38-3.35-1.57-4.17-3.24s-.82-3.61,0-5.28c.58-1.18,1.31-2.95,2.05-5.47-1.15-1.12-1.82-2.67-1.82-4.3v-4.44c0-2.62,1.7-4.93,4.19-5.72,0-.08,0-.17.01-.26.11-2.67,1.97-4.95,4.57-5.58l4.55-1.11c1.89-.46,3.88.02,5.35,1.29.15.13.29.26.42.4l1.6-1.29c2.57-2.07,6.35-1.68,8.43.9,4.32,5.33,4.67,11.21,4.86,14.37.14,2.41-1.18,4.68-3.35,5.74l-3.89,1.91c-.22,1.03-.5,2.07-.87,3.04-1.51,3.99-4.37,6.57-8.71,7.88-1.44.44-2.78.7-3.34.79-.23.04-.47.06-.7.07-1.05.83-2.37,1.3-3.73,1.3Z"/><path class="cls-13" d="M120.98,79.16c-1.23,0-2.44-.38-3.46-1.1-1.39-.98-2.29-2.5-2.49-4.19l-.45-3.72c-.82-1.05-1.29-2.35-1.29-3.71,0-2.84.06-7.15.61-11.78.24-2.05,1.52-3.8,3.32-4.68l.3-1.76c.39-2.29,2.07-4.15,4.31-4.77,5.05-1.4,8.77-1.97,12.84-1.97h.02c1.8,0,3.5.81,4.64,2.2,1.14,1.39,1.59,3.22,1.24,4.98l-.59,2.94c2.29,2.03,3.59,5.14,3.59,8.65,0,12.51-12.41,16.27-16.49,17.5-2.25.68-3.82,1.05-4.79,1.27-.44.1-.88.15-1.32.15Z"/><path class="cls-13" d="M141.98,72.47c-1.27,0-2.53-.41-3.58-1.18-1.52-1.13-2.42-2.92-2.42-4.82v-4.93c0-.78.15-1.53.42-2.22l-.61-15.56c-.11-2.73,1.64-5.19,4.26-5.98l5.35-1.62c1.86-.56,3.87-.19,5.4.99,1.53,1.19,2.4,3.04,2.33,4.98l-.6,15.7c.27.69.42,1.43.42,2.2v4.93c0,2.64-1.73,4.98-4.26,5.74l-4.96,1.5c-.57.17-1.16.26-1.74.26Z"/><path class="cls-13" d="M22.73,44.81c-1.65,0-3.28-.4-4.78-1.17-2.46-1.28-4.28-3.44-5.12-6.09h0c-1.73-5.47,1.31-11.32,6.77-13.05,5.47-1.73,11.32,1.31,13.05,6.77.84,2.65.6,5.46-.68,7.93-1.28,2.46-3.44,4.28-6.09,5.12-1.03.33-2.09.49-3.15.49ZM22.74,32.81c-.16,0-.32.02-.48.07-.4.13-.75.42-.94.79s-.23.82-.11,1.22c.27.84,1.17,1.31,2.01,1.04.84-.27,1.31-1.17,1.05-2.01,0,0,0,0,0,0-.22-.68-.85-1.12-1.53-1.12Z"/><path class="cls-13" d="M58.67,33.88c-1.65,0-3.28-.39-4.78-1.17-2.46-1.28-4.28-3.44-5.12-6.09h0c-1.73-5.47,1.31-11.32,6.77-13.05,5.47-1.73,11.32,1.31,13.05,6.77.84,2.65.6,5.46-.68,7.93-1.28,2.46-3.44,4.28-6.09,5.12-1.03.33-2.09.49-3.15.49ZM58.68,21.88c-.16,0-.33.02-.48.07-.84.27-1.31,1.17-1.04,2.01.27.84,1.17,1.31,2.01,1.04.4-.13.75-.42.94-.79s.23-.82.11-1.22c0,0,0,0,0,0-.13-.4-.42-.75-.79-.94-.23-.12-.48-.18-.74-.18Z"/><path class="cls-13" d="M95.24,22.9c-1.65,0-3.28-.4-4.78-1.17-2.46-1.28-4.28-3.44-5.12-6.09h0c-1.73-5.47,1.31-11.32,6.77-13.05,2.65-.84,5.46-.6,7.93.68,2.46,1.28,4.28,3.44,5.12,6.09.84,2.65.6,5.46-.68,7.93-1.28,2.47-3.44,4.28-6.09,5.12-1.03.33-2.09.49-3.15.49ZM95.24,10.9c-.16,0-.33.02-.48.07-.4.13-.74.42-.94.79-.19.38-.23.82-.11,1.22.27.84,1.17,1.31,2.01,1.04.84-.27,1.31-1.17,1.04-2.01,0,0,0,0,0,0-.13-.4-.42-.75-.79-.94-.23-.12-.48-.18-.74-.18Z"/><path class="cls-13" d="M7.39,86.63c-1.27,0-2.53-.41-3.58-1.18-1.52-1.13-2.42-2.92-2.42-4.82v-16.23c0-1.73.74-3.32,1.95-4.43v-1.83c-1.48-1.13-2.34-2.89-2.34-4.76v-5.55c0-2.64,1.73-4.98,4.26-5.74l9.44-2.85c.74-.95,1.77-1.68,2.99-2.04l6.81-2.06c1.2-.36,2.46-.34,3.62.05l8.81-2.66c1.82-.55,3.79-.21,5.31.93s2.42,2.92,2.42,4.82v5.55c0,1.9-.9,3.65-2.34,4.76v2.06c1.24,1.13,1.95,2.74,1.95,4.43v16.23c0,2.64-1.73,4.98-4.26,5.74l-6.64,2.01c-1.26.38-2.59.33-3.79-.11l-10.75,3.25c-.75,1.02-1.82,1.81-3.1,2.19l-6.6,2c-.57.17-1.15.26-1.74.26ZM38.27,71.29h0,0Z"/><path class="cls-13" d="M46.05,74.83c-1.27,0-2.53-.41-3.58-1.18-1.53-1.13-2.42-2.92-2.42-4.82v-6.74c-.54-.2-1.05-.47-1.52-.82-1.53-1.13-2.42-2.92-2.42-4.82v-14.02c0-2.53,1.59-4.78,3.94-5.64v-1.83c0-2.64,1.73-4.98,4.26-5.74l6.04-1.83c.85-.26,1.73-.32,2.58-.2.39-.23.81-.41,1.26-.54l4.69-1.42c.57-.44,1.23-.79,1.95-1.01l6.57-1.99c1.82-.55,3.79-.21,5.31.92.58.43,1.08.96,1.46,1.56,1.26,0,2.5.41,3.54,1.18,1.52,1.13,2.42,2.92,2.42,4.82v6.61c0,1.21-.36,2.35-1,3.31.14.51.22,1.05.22,1.6v6.57c0,.42-.04.83-.13,1.23.59.94.91,2.04.91,3.17v6.69c0,2.64-1.73,4.98-4.26,5.74l-18.32,5.54c-.47.14-.96.23-1.44.25-.64.58-1.42,1.03-2.29,1.29l-6.04,1.83c-.57.17-1.16.26-1.74.26ZM74.13,59.92h0,0Z"/><path class="cls-13" d="M79.42,64.77c-1.27,0-2.53-.41-3.58-1.18-1.52-1.13-2.42-2.92-2.42-4.82v-20.14c-.5-.89-.78-1.91-.78-2.96v-6c0-.82.17-1.64.5-2.4l2.31-5.3c.7-1.61,2.08-2.84,3.76-3.35l6.46-1.95c1.03-.31,2.09-.34,3.1-.1l3.64-1.1c.7-.75,1.6-1.32,2.63-1.63l6.57-1.99c1.01-.31,2.08-.34,3.08-.1l3.02-1.47c1.86-.91,4.05-.79,5.81.31,1.75,1.1,2.82,3.02,2.82,5.09v6.19c0,.57-.08,1.12-.23,1.65.15.53.23,1.09.23,1.65v6.38c0,.26-.02.51-.05.76.03.25.05.5.05.76v6.23c0,.55-.07,1.08-.22,1.6.14.51.22,1.05.22,1.6v6.5c0,2.64-1.73,4.98-4.26,5.74l-12.99,3.93c-.57.44-1.23.79-1.95,1.01l-6.64,2.01c-.47.14-.95.23-1.43.25-.41.25-.86.44-1.33.59l-6.57,1.99c-.57.17-1.15.26-1.74.26ZM110.33,49h0,0Z"/><path class="cls-13" d="M55.19,97.46c-4.14,0-6.75-1.63-8.24-3.04-2.2-2.1-3.42-5.13-3.42-8.53,0-.22,0-.44.01-.65-.54-.15-1.05-.38-1.54-.68-1.67-1.04-2.73-2.85-2.82-4.82l-.22-4.93c-.12-2.7,1.58-5.15,4.15-5.98,1.12-.36,1.51-.5,5.01-1.82,5.22-1.96,10.71-3.81,16.03-5.6l.11-.04c1.81-.61,3.79-.32,5.35.77,1.56,1.09,2.51,2.86,2.56,4.76l.12,4.59c.01.51-.04,1.01-.15,1.49.23.38.44.75.64,1.1,1.37,2.48.83,5.57-1.3,7.44l-1.44,1.26c.24.77.32,1.6.23,2.42l-.57,5.2c-.26,2.37-1.9,4.36-4.18,5.07-3.57,1.11-6.41,1.83-9.54,1.98-.27.01-.54.02-.8.02Z"/><path class="cls-13" d="M74.66,92.91c-2.46,0-4.75-1.52-5.64-3.95l-1.34-3.69c-.57-1.56-.46-3.29.29-4.77.15-.3.33-.58.53-.85-.25-.82-.4-1.68-.46-2.58-.58-.2-1.14-.49-1.65-.86-1.52-1.13-2.42-2.92-2.42-4.82v-4.25c0-2.64,1.73-4.98,4.26-5.74l6.93-2.1c.67-1.62,2.04-2.91,3.8-3.44l4.45-1.34c1.72-.52,3.58-.24,5.07.75l1.07-.32c1.82-.55,3.79-.21,5.31.92,1.53,1.13,2.42,2.92,2.42,4.82v4.25c0,2.64-1.73,4.98-4.26,5.74l-1.87.57v.42c.15.77.32,1.9.32,3.3,0,3.06-.82,8.84-6.31,13.23-2.19,1.75-5.08,3.23-8.6,4.4-.63.21-1.27.31-1.9.31Z"/><path class="cls-13" d="M97.32,85.71c-.4,0-.81-.04-1.22-.13l-4.22-.88c-1.82-.38-3.35-1.57-4.17-3.24s-.82-3.61,0-5.28c.58-1.18,1.31-2.95,2.05-5.47-1.15-1.12-1.82-2.67-1.82-4.3v-4.44c0-2.62,1.7-4.93,4.19-5.72,0-.08,0-.17.01-.26.11-2.67,1.97-4.95,4.57-5.58l4.55-1.11c1.89-.46,3.88.02,5.35,1.29.15.13.29.26.42.4l1.6-1.29c2.57-2.08,6.35-1.68,8.43.9,4.32,5.33,4.67,11.21,4.86,14.37.14,2.41-1.18,4.68-3.35,5.74l-3.89,1.91c-.22,1.03-.5,2.07-.87,3.04-1.51,3.99-4.37,6.57-8.71,7.88-1.44.44-2.78.7-3.34.79-.23.04-.47.06-.7.07-1.05.83-2.37,1.3-3.73,1.3Z"/><path class="cls-13" d="M120.48,78.46c-1.23,0-2.44-.38-3.46-1.1-1.39-.98-2.29-2.5-2.49-4.19l-.45-3.72c-.82-1.05-1.29-2.35-1.29-3.71,0-2.84.06-7.15.61-11.78.24-2.05,1.52-3.8,3.32-4.68l.3-1.76c.39-2.29,2.07-4.15,4.31-4.77,5.05-1.4,8.77-1.97,12.84-1.97h.02c1.8,0,3.5.81,4.64,2.2,1.14,1.39,1.59,3.22,1.24,4.98l-.59,2.94c2.29,2.03,3.59,5.14,3.59,8.65,0,12.51-12.41,16.27-16.49,17.5-2.25.68-3.82,1.05-4.79,1.27-.44.1-.88.15-1.32.15Z"/><path class="cls-13" d="M141.48,71.77c-1.27,0-2.53-.41-3.58-1.18-1.52-1.13-2.42-2.92-2.42-4.82v-4.93c0-.78.15-1.53.42-2.22l-.61-15.56c-.11-2.73,1.64-5.19,4.26-5.98l5.35-1.62c1.86-.56,3.87-.19,5.4.99,1.53,1.19,2.4,3.04,2.33,4.98l-.6,15.7c.27.69.42,1.43.42,2.2v4.93c0,2.64-1.73,4.98-4.26,5.74l-4.96,1.5c-.57.17-1.16.26-1.74.26Z"/><path class="cls-13" d="M22.23,44.11c-1.65,0-3.28-.39-4.78-1.17-2.46-1.28-4.28-3.44-5.12-6.09h0c-1.73-5.47,1.31-11.32,6.77-13.05,5.47-1.73,11.32,1.31,13.05,6.77.84,2.65.6,5.46-.68,7.93-1.28,2.46-3.44,4.28-6.09,5.12-1.03.33-2.09.49-3.15.49ZM22.23,32.11c-.16,0-.33.02-.48.07-.84.27-1.31,1.17-1.04,2.01.27.84,1.17,1.31,2.01,1.04.4-.13.75-.42.94-.79s.23-.82.11-1.22c0,0,0,0,0,0-.13-.4-.42-.75-.79-.94-.23-.12-.48-.18-.74-.18Z"/><path class="cls-13" d="M58.17,33.18c-1.65,0-3.28-.4-4.78-1.17-2.46-1.28-4.28-3.44-5.12-6.09h0c-1.73-5.47,1.31-11.32,6.77-13.05,2.65-.84,5.46-.6,7.93.68,2.46,1.28,4.28,3.44,5.12,6.09.84,2.65.6,5.46-.68,7.93-1.28,2.47-3.44,4.28-6.09,5.12-1.03.33-2.09.49-3.15.49ZM58.18,21.18c-.16,0-.33.02-.48.07-.4.13-.74.42-.94.79-.19.38-.23.82-.11,1.22.27.84,1.17,1.31,2.01,1.04.84-.27,1.31-1.17,1.04-2.01,0,0,0,0,0,0-.13-.4-.42-.75-.79-.94-.23-.12-.48-.18-.74-.18Z"/><path class="cls-13" d="M94.73,22.2c-1.65,0-3.28-.39-4.78-1.17-2.46-1.28-4.28-3.44-5.12-6.09h0c-.84-2.65-.6-5.46.68-7.93,1.28-2.46,3.44-4.28,6.09-5.12,5.47-1.73,11.32,1.31,13.05,6.77.84,2.65.6,5.46-.68,7.93-1.28,2.46-3.44,4.28-6.09,5.12-1.03.33-2.09.49-3.15.49ZM94.74,10.2c-.16,0-.33.02-.48.07-.84.27-1.31,1.17-1.04,2.01.27.84,1.17,1.31,2.01,1.04.4-.13.74-.42.94-.79.19-.37.23-.82.11-1.22,0,0,0,0,0,0-.13-.4-.42-.75-.79-.94-.23-.12-.48-.18-.74-.18Z"/><path class="cls-13" d="M6.89,85.93c-1.27,0-2.53-.41-3.58-1.18-1.52-1.13-2.42-2.92-2.42-4.82v-16.23c0-1.73.74-3.32,1.95-4.43v-1.83c-1.48-1.13-2.34-2.89-2.34-4.76v-5.55c0-2.64,1.73-4.98,4.26-5.74l9.44-2.85c.74-.95,1.77-1.68,2.99-2.04l6.81-2.06c1.2-.36,2.46-.34,3.62.05l8.81-2.66c1.82-.55,3.79-.21,5.31.93s2.42,2.92,2.42,4.82v5.55c0,1.9-.9,3.65-2.34,4.76v2.06c1.24,1.13,1.95,2.74,1.95,4.43v16.23c0,2.64-1.73,4.98-4.26,5.74l-6.64,2.01c-1.26.38-2.59.33-3.79-.11l-10.75,3.25c-.75,1.02-1.82,1.81-3.1,2.19l-6.6,2c-.57.17-1.15.26-1.74.26ZM37.77,70.59h0,0Z"/><path class="cls-13" d="M45.55,74.13c-1.27,0-2.53-.41-3.58-1.18-1.53-1.13-2.42-2.92-2.42-4.82v-6.74c-.54-.2-1.05-.47-1.52-.82-1.53-1.13-2.42-2.92-2.42-4.82v-14.02c0-2.53,1.59-4.78,3.94-5.64v-1.83c0-2.64,1.73-4.98,4.26-5.74l6.04-1.83c.85-.26,1.73-.32,2.58-.2.39-.23.81-.41,1.26-.54l4.69-1.42c.57-.44,1.23-.79,1.95-1.01l6.57-1.99c1.82-.55,3.79-.21,5.31.92.58.43,1.08.96,1.46,1.56,1.26,0,2.5.41,3.54,1.18,1.52,1.13,2.42,2.92,2.42,4.82v6.61c0,1.21-.36,2.35-1,3.31.14.51.22,1.05.22,1.6v6.57c0,.42-.04.83-.13,1.23.59.94.91,2.04.91,3.17v6.69c0,2.64-1.73,4.98-4.26,5.74l-18.32,5.54c-.47.14-.96.23-1.44.25-.64.58-1.42,1.03-2.29,1.29l-6.04,1.83c-.57.17-1.16.26-1.74.26ZM73.63,59.22h0,0Z"/><path class="cls-13" d="M78.92,64.07c-1.27,0-2.53-.41-3.58-1.18-1.52-1.13-2.42-2.92-2.42-4.82v-20.14c-.5-.89-.78-1.91-.78-2.96v-6c0-.82.17-1.64.5-2.4l2.31-5.3c.7-1.61,2.08-2.84,3.76-3.35l6.46-1.95c1.03-.31,2.09-.33,3.1-.1l3.64-1.1c.7-.75,1.6-1.32,2.63-1.63l6.57-1.99c1.01-.31,2.08-.34,3.08-.1l3.02-1.47c1.86-.91,4.05-.79,5.81.31,1.75,1.1,2.82,3.02,2.82,5.09v6.19c0,.57-.08,1.12-.23,1.65.15.53.23,1.09.23,1.65v6.38c0,.26-.02.51-.05.76.03.25.05.5.05.76v6.23c0,.55-.07,1.08-.22,1.6.14.51.22,1.05.22,1.6v6.5c0,2.64-1.73,4.98-4.26,5.74l-12.99,3.93c-.57.44-1.23.79-1.95,1.01l-6.64,2.01c-.47.14-.95.23-1.43.25-.41.25-.86.44-1.33.59l-6.57,1.99c-.57.17-1.15.26-1.74.26ZM109.83,48.3h0,0Z"/><path class="cls-13" d="M54.69,96.76c-4.14,0-6.75-1.63-8.24-3.04-2.2-2.1-3.42-5.13-3.42-8.53,0-.22,0-.44.01-.65-.54-.15-1.05-.38-1.54-.68-1.67-1.04-2.73-2.85-2.82-4.82l-.22-4.93c-.12-2.7,1.58-5.15,4.15-5.98,1.12-.36,1.51-.5,5.01-1.82,5.22-1.96,10.71-3.81,16.03-5.6l.11-.04c1.81-.61,3.79-.32,5.35.77,1.56,1.09,2.51,2.86,2.56,4.76l.12,4.59c.01.51-.04,1.01-.15,1.49.23.38.44.75.64,1.1,1.37,2.48.83,5.57-1.3,7.44l-1.44,1.26c.24.77.32,1.6.23,2.42l-.57,5.2c-.26,2.37-1.9,4.36-4.18,5.07-3.57,1.11-6.41,1.83-9.54,1.98-.27.01-.54.02-.8.02Z"/><path class="cls-13" d="M74.16,92.21c-2.46,0-4.75-1.52-5.64-3.95l-1.34-3.69c-.57-1.56-.46-3.29.29-4.77.15-.3.33-.58.53-.85-.25-.82-.4-1.68-.46-2.58-.58-.2-1.14-.49-1.65-.86-1.52-1.13-2.42-2.92-2.42-4.82v-4.25c0-2.64,1.73-4.98,4.26-5.74l6.93-2.1c.67-1.62,2.04-2.91,3.8-3.44l4.45-1.34c1.72-.52,3.58-.24,5.07.75l1.07-.32c1.82-.55,3.79-.21,5.31.92,1.53,1.13,2.42,2.92,2.42,4.82v4.25c0,2.64-1.73,4.98-4.26,5.74l-1.87.57v.42c.15.77.32,1.9.32,3.3,0,3.06-.82,8.84-6.31,13.23-2.19,1.75-5.08,3.23-8.6,4.4-.63.21-1.27.31-1.9.31Z"/><path class="cls-13" d="M96.82,85.01c-.4,0-.81-.04-1.22-.13l-4.22-.88c-1.82-.38-3.35-1.57-4.17-3.24s-.82-3.61,0-5.28c.58-1.18,1.31-2.95,2.05-5.47-1.15-1.12-1.82-2.67-1.82-4.3v-4.44c0-2.62,1.7-4.93,4.19-5.72,0-.08,0-.17.01-.26.11-2.67,1.97-4.95,4.57-5.58l4.55-1.11c1.89-.46,3.88.02,5.35,1.29.15.13.29.26.42.4l1.6-1.29c2.57-2.07,6.35-1.68,8.43.9,4.32,5.33,4.67,11.21,4.86,14.37.14,2.41-1.18,4.68-3.35,5.74l-3.89,1.91c-.22,1.03-.5,2.07-.87,3.04-1.51,3.99-4.37,6.57-8.71,7.88-1.44.44-2.78.7-3.34.79-.23.04-.47.06-.7.07-1.05.83-2.37,1.3-3.73,1.3Z"/><path class="cls-13" d="M119.98,77.76c-1.23,0-2.44-.38-3.46-1.1-1.39-.98-2.29-2.5-2.49-4.19l-.45-3.72c-.82-1.05-1.29-2.35-1.29-3.71,0-2.84.06-7.15.61-11.78.24-2.05,1.52-3.8,3.32-4.68l.3-1.76c.39-2.29,2.07-4.15,4.31-4.77,5.05-1.4,8.77-1.97,12.84-1.97h.02c1.8,0,3.5.81,4.64,2.2,1.14,1.39,1.59,3.22,1.24,4.98l-.59,2.94c2.29,2.03,3.59,5.14,3.59,8.65,0,12.51-12.41,16.27-16.49,17.5-2.25.68-3.82,1.05-4.79,1.27-.44.1-.88.15-1.32.15Z"/><path class="cls-13" d="M140.98,71.07c-1.27,0-2.53-.41-3.58-1.18-1.52-1.13-2.42-2.92-2.42-4.82v-4.93c0-.78.15-1.53.42-2.22l-.61-15.56c-.11-2.73,1.64-5.19,4.26-5.98l5.35-1.62c1.86-.56,3.87-.19,5.4.99,1.53,1.19,2.4,3.04,2.33,4.98l-.6,15.7c.27.69.42,1.43.42,2.2v4.93c0,2.64-1.73,4.98-4.26,5.74l-4.96,1.5c-.57.17-1.16.26-1.74.26Z"/><path class="cls-13" d="M21.73,43.41c-1.65,0-3.28-.4-4.78-1.17-2.46-1.28-4.28-3.44-5.12-6.09h0c-1.73-5.47,1.31-11.32,6.77-13.05,2.65-.84,5.46-.6,7.93.68,2.46,1.28,4.28,3.44,5.12,6.09.84,2.65.6,5.46-.68,7.93-1.28,2.47-3.44,4.28-6.09,5.12-1.03.33-2.09.49-3.15.49ZM21.73,31.41c-.16,0-.33.02-.48.07-.4.13-.74.42-.94.79-.19.38-.23.82-.11,1.22.27.84,1.17,1.31,2.01,1.04.84-.27,1.31-1.17,1.04-2.01,0,0,0,0,0,0-.13-.4-.42-.75-.79-.94-.23-.12-.48-.18-.74-.18Z"/><path class="cls-13" d="M57.67,32.48c-1.65,0-3.28-.39-4.78-1.17-2.46-1.28-4.28-3.44-5.12-6.09h0c-.84-2.65-.6-5.46.68-7.93,1.28-2.46,3.44-4.28,6.09-5.12,5.47-1.73,11.32,1.31,13.05,6.77.84,2.65.6,5.46-.68,7.93-1.28,2.46-3.44,4.28-6.09,5.12-1.03.33-2.09.49-3.15.49ZM57.68,20.48c-.16,0-.33.02-.48.07-.84.27-1.31,1.17-1.04,2.01s1.17,1.31,2.01,1.04c.4-.13.74-.42.94-.79.19-.37.23-.82.11-1.22,0,0,0,0,0,0-.13-.4-.42-.75-.79-.94-.23-.12-.48-.18-.74-.18Z"/><path class="cls-13" d="M94.23,21.5c-1.65,0-3.28-.39-4.78-1.17-2.46-1.28-4.28-3.44-5.12-6.09h0c-1.73-5.47,1.31-11.32,6.77-13.05,2.65-.84,5.46-.6,7.93.68,2.46,1.28,4.28,3.44,5.12,6.09.84,2.65.6,5.46-.68,7.93s-3.44,4.28-6.09,5.12c-1.03.33-2.09.49-3.15.49ZM94.24,9.5c-.16,0-.33.02-.48.07-.4.13-.74.42-.94.79-.19.37-.23.82-.11,1.22.27.84,1.17,1.31,2.01,1.04.4-.13.75-.42.94-.79s.23-.82.11-1.22c0,0,0,0,0,0-.13-.4-.42-.75-.79-.94-.23-.12-.48-.18-.74-.18Z"/><path class="cls-13" d="M6.39,85.23c-1.27,0-2.53-.41-3.58-1.18-1.52-1.13-2.42-2.92-2.42-4.82v-16.23c0-1.73.74-3.32,1.95-4.43v-1.83c-1.48-1.13-2.34-2.89-2.34-4.76v-5.55c0-2.64,1.73-4.98,4.26-5.74l9.44-2.85c.74-.95,1.77-1.68,2.99-2.04l6.81-2.06c1.2-.36,2.46-.34,3.62.05l8.81-2.66c1.82-.55,3.79-.21,5.31.93s2.42,2.92,2.42,4.82v5.55c0,1.9-.9,3.65-2.34,4.76v2.06c1.24,1.13,1.95,2.74,1.95,4.43v16.23c0,2.64-1.73,4.98-4.26,5.74l-6.64,2.01c-1.26.38-2.59.33-3.79-.11l-10.75,3.25c-.75,1.02-1.82,1.81-3.1,2.19l-6.6,2c-.57.17-1.15.26-1.74.26ZM37.27,69.89h0,0Z"/><path class="cls-13" d="M45.05,73.43c-1.27,0-2.53-.41-3.58-1.18-1.53-1.13-2.42-2.92-2.42-4.82v-6.74c-.54-.2-1.05-.47-1.52-.82-1.53-1.13-2.42-2.92-2.42-4.82v-14.02c0-2.53,1.59-4.78,3.94-5.64v-1.83c0-2.64,1.73-4.98,4.26-5.74l6.04-1.83c.85-.26,1.73-.32,2.58-.2.39-.23.81-.41,1.26-.54l4.69-1.42c.57-.44,1.23-.79,1.95-1.01l6.57-1.99c1.82-.55,3.79-.21,5.31.92.58.43,1.08.96,1.46,1.56,1.26,0,2.5.41,3.54,1.18,1.52,1.13,2.42,2.92,2.42,4.82v6.61c0,1.21-.36,2.35-1,3.31.14.51.22,1.05.22,1.6v6.57c0,.42-.04.83-.13,1.23.59.94.91,2.04.91,3.17v6.69c0,2.64-1.73,4.98-4.26,5.74l-18.32,5.54c-.47.14-.96.23-1.44.25-.64.58-1.42,1.03-2.29,1.29l-6.04,1.83c-.57.17-1.16.26-1.74.26ZM73.13,58.52h0,0Z"/><path class="cls-13" d="M78.42,63.37c-1.27,0-2.53-.41-3.58-1.18-1.52-1.13-2.42-2.92-2.42-4.82v-20.14c-.5-.89-.78-1.91-.78-2.96v-6c0-.82.17-1.64.5-2.4l2.31-5.3c.7-1.61,2.08-2.84,3.76-3.35l6.46-1.95c1.03-.31,2.09-.33,3.1-.1l3.64-1.1c.7-.75,1.6-1.32,2.63-1.63l6.57-1.99c1.01-.31,2.08-.33,3.08-.1l3.02-1.47c1.86-.91,4.05-.79,5.81.31,1.75,1.1,2.82,3.02,2.82,5.09v6.19c0,.57-.08,1.12-.23,1.65.15.53.23,1.09.23,1.65v6.38c0,.26-.02.51-.05.76.03.25.05.5.05.76v6.23c0,.55-.07,1.08-.22,1.6.14.51.22,1.05.22,1.6v6.5c0,2.64-1.73,4.98-4.26,5.74l-12.99,3.93c-.57.44-1.23.79-1.95,1.01l-6.64,2.01c-.47.14-.95.23-1.43.25-.41.25-.86.44-1.33.59l-6.57,1.99c-.57.17-1.15.26-1.74.26ZM109.33,47.6h0,0Z"/><path class="cls-13" d="M54.19,96.06c-4.14,0-6.75-1.63-8.24-3.04-2.2-2.1-3.42-5.13-3.42-8.53,0-.22,0-.44.01-.65-.54-.15-1.05-.38-1.54-.68-1.67-1.04-2.73-2.85-2.82-4.82l-.22-4.93c-.12-2.7,1.58-5.15,4.15-5.98,1.12-.36,1.51-.5,5.01-1.82,5.22-1.96,10.71-3.81,16.03-5.6l.11-.04c1.81-.61,3.79-.32,5.35.77,1.56,1.09,2.51,2.86,2.56,4.76l.12,4.59c.01.51-.04,1.01-.15,1.49.23.38.44.75.64,1.1,1.37,2.48.83,5.57-1.3,7.44l-1.44,1.26c.24.77.32,1.6.23,2.42l-.57,5.2c-.26,2.37-1.9,4.36-4.18,5.07-3.57,1.11-6.41,1.83-9.54,1.98-.27.01-.54.02-.8.02Z"/><path class="cls-13" d="M73.66,91.51c-2.46,0-4.75-1.52-5.64-3.95l-1.34-3.69c-.57-1.56-.46-3.29.29-4.77.15-.3.33-.58.53-.85-.25-.82-.4-1.68-.46-2.58-.58-.2-1.14-.49-1.65-.86-1.52-1.13-2.42-2.92-2.42-4.82v-4.25c0-2.64,1.73-4.98,4.26-5.74l6.93-2.1c.67-1.62,2.04-2.91,3.8-3.44l4.45-1.34c1.72-.52,3.58-.24,5.07.75l1.07-.32c1.82-.55,3.79-.21,5.31.92,1.53,1.13,2.42,2.92,2.42,4.82v4.25c0,2.64-1.73,4.98-4.26,5.74l-1.87.57v.42c.15.77.32,1.9.32,3.3,0,3.06-.82,8.84-6.31,13.23-2.19,1.75-5.08,3.23-8.6,4.4-.63.21-1.27.31-1.9.31Z"/><path class="cls-13" d="M96.32,84.31c-.4,0-.81-.04-1.22-.13l-4.22-.88c-1.82-.38-3.35-1.57-4.17-3.24s-.82-3.61,0-5.28c.58-1.18,1.31-2.95,2.05-5.47-1.15-1.12-1.82-2.67-1.82-4.3v-4.44c0-2.62,1.7-4.93,4.19-5.72,0-.08,0-.17.01-.26.11-2.67,1.97-4.95,4.57-5.58l4.55-1.11c1.89-.46,3.88.02,5.35,1.29.15.13.29.26.42.4l1.6-1.29c2.58-2.08,6.35-1.68,8.43.9,4.32,5.33,4.67,11.21,4.86,14.37.14,2.41-1.18,4.68-3.35,5.74l-3.89,1.91c-.22,1.03-.5,2.07-.87,3.04-1.51,3.99-4.37,6.57-8.71,7.88-1.44.44-2.78.7-3.34.79-.23.04-.47.06-.7.07-1.05.83-2.37,1.3-3.73,1.3Z"/><path class="cls-13" d="M119.48,77.06c-1.23,0-2.44-.38-3.46-1.1-1.39-.98-2.29-2.5-2.49-4.19l-.45-3.72c-.82-1.05-1.29-2.35-1.29-3.71,0-2.84.06-7.15.61-11.78.24-2.05,1.52-3.8,3.32-4.68l.3-1.76c.39-2.29,2.07-4.15,4.31-4.77,5.05-1.4,8.77-1.97,12.84-1.97h.02c1.8,0,3.5.81,4.64,2.2,1.14,1.39,1.59,3.22,1.24,4.98l-.59,2.94c2.29,2.03,3.59,5.14,3.59,8.65,0,12.51-12.41,16.27-16.49,17.5-2.25.68-3.82,1.05-4.79,1.27-.44.1-.88.15-1.32.15Z"/><path class="cls-13" d="M140.48,70.37c-1.27,0-2.53-.41-3.58-1.18-1.52-1.13-2.42-2.92-2.42-4.82v-4.93c0-.78.15-1.53.42-2.22l-.61-15.56c-.11-2.73,1.64-5.19,4.26-5.98l5.35-1.62c1.86-.56,3.87-.19,5.4.99,1.53,1.19,2.4,3.04,2.33,4.98l-.6,15.7c.27.69.42,1.43.42,2.2v4.93c0,2.64-1.73,4.98-4.26,5.74l-4.96,1.5c-.57.17-1.16.26-1.74.26Z"/><path class="cls-13" d="M21.23,42.71c-1.65,0-3.28-.39-4.78-1.17-2.46-1.28-4.28-3.44-5.12-6.09h0c-.84-2.65-.6-5.46.68-7.93,1.28-2.46,3.44-4.28,6.09-5.12,5.47-1.73,11.32,1.31,13.05,6.77.84,2.65.6,5.46-.68,7.93-1.28,2.46-3.44,4.28-6.09,5.12-1.03.33-2.09.49-3.15.49ZM21.24,30.71c-.16,0-.33.02-.48.07-.84.27-1.31,1.17-1.04,2.01.27.84,1.17,1.31,2.01,1.04.4-.13.74-.42.94-.79.19-.37.23-.82.11-1.22,0,0,0,0,0,0-.13-.4-.42-.75-.79-.94-.23-.12-.48-.18-.74-.18Z"/><path class="cls-13" d="M57.17,31.78c-1.65,0-3.28-.39-4.78-1.17-2.46-1.28-4.28-3.44-5.12-6.09h0c-1.73-5.47,1.31-11.32,6.77-13.05,2.65-.84,5.46-.6,7.93.68,2.46,1.28,4.28,3.44,5.12,6.09.84,2.65.6,5.46-.68,7.93s-3.44,4.28-6.09,5.12c-1.03.33-2.09.49-3.15.49ZM57.18,19.78c-.16,0-.33.02-.48.07-.4.13-.74.42-.94.79-.19.37-.23.82-.11,1.22.27.84,1.17,1.31,2.01,1.04.4-.13.75-.42.94-.79s.23-.82.11-1.22c0,0,0,0,0,0-.13-.4-.42-.75-.79-.94-.23-.12-.48-.18-.74-.18Z"/><path class="cls-13" d="M93.74,20.8c-1.65,0-3.28-.4-4.78-1.17-2.46-1.28-4.28-3.44-5.12-6.09h0c-1.73-5.47,1.31-11.32,6.77-13.05,5.47-1.73,11.32,1.31,13.05,6.77.84,2.65.6,5.46-.68,7.93-1.28,2.46-3.44,4.28-6.09,5.12-1.03.33-2.09.49-3.15.49ZM93.75,8.79c-.16,0-.33.02-.48.07-.84.27-1.31,1.17-1.04,2.01.27.84,1.17,1.31,2.01,1.04.84-.27,1.31-1.17,1.05-2.01,0,0,0,0,0,0-.13-.4-.42-.75-.79-.94-.23-.12-.48-.18-.74-.18Z"/><path class="cls-9" d="M37.66,42.42l-31.66,9.58v-5.55l12.42-3.76v-1.14l6.81-2.06v1.14l12.42-3.76v5.55ZM37.27,69.89l-6.64,2.01v-11.51l-17.64,5.34v11.51l-6.6,2v-16.23l30.88-9.34v16.23ZM35.32,53.15l-26.98,8.16v-9.08l26.98-8.16v9.08ZM29.25,71.07l-14.87,4.5v-9.12l14.87-4.5v9.12ZM28.58,51.36v-1.37l-13.49,4.08v1.37l13.49-4.08ZM23.36,69.2v-1.94l-3.02.91v1.94l3.02-.91Z"/><path class="cls-1" d="M44.41,54.05l-3.3,1v-14.02l3.3-1v14.02ZM73.13,58.52l-18.32,5.54v-6.69l6.74-2.04v-4.64l-5.5,1.67v-6.57l5.5-1.67v-4.67l-2.77.84-.57,3.74-3.66,1.11.32,3.25-3.12.94-.67-9.3v25.57l-6.04,1.83v-33.86l6.04-1.83v6.27l2.77-.84.07.7.99-6.88,5.5-1.66-.6,4.02,1.74-.53v-4.26l6.57-1.99v4.26l5-1.51v6.61l-5,1.51v4.67l4.22-1.28v6.57l-4.22,1.28v4.64l5-1.51v6.69Z"/><path class="cls-6" d="M95.06,29l-17.43,5.27v-6l2.31-5.3,6.46-1.95-2.24,5.27,4.22-1.28-.39-3.64,6-1.81,1.06,9.44ZM94.39,52.54l-6.64,2.01v-3.31l-2.77.84v3.31l-6.57,1.99v-22.23l15.97-4.83v22.23ZM87.75,39.31v-2.01l-2.77.84v2.01l2.77-.84ZM87.75,46.22v-1.98l-2.77.84v1.98l2.77-.84ZM109.33,30.16l-13.56,4.1v-16.07l6.57-1.99v1.48l6.99-3.41v6.19l-6.99,3.29v2.13l6.99-2.12v6.38ZM109.33,47.6l-13.56,4.1v-16.07l6.57-1.99v1.48l6.99-3.45v6.23l-6.99,3.29v2.01l6.99-2.12v6.5Z"/><path class="cls-3" d="M65.3,70.24c-.27.08-1.39.39-1.91.55-.85.26-2.11.69-3.06,1.27-3.5,2.15-7.28,7.12-7.28,10.69,0,2.47,2.06,2.97,7.73,1.25.99-.3,1.89-.62,2.53-.87l-.57,5.2c-3.11.97-5.54,1.6-8.05,1.72-4.72.23-6.16-2.71-6.16-5.56,0-.93,0-5.08,4.87-10.2-1.79.73-7.8,3.16-9.22,3.77l-.22-4.93c1.29-.42,1.81-.6,5.29-1.92,5.14-1.93,10.53-3.75,15.92-5.56l.12,4.59ZM60.29,74.29c1.27,1.24,2.16,2.86,2.81,4.1l-2.31,2.11c-.84-1.84-1.51-2.92-2.68-4.24l2.19-1.96ZM63.62,71.58c1.32,1.25,2.21,2.71,2.93,4.01l-2.33,2.04c-.89-1.8-1.47-2.75-2.81-4.15l2.21-1.89Z"/><path class="cls-2" d="M90.28,59.28v4.25l-6.14,1.86v5.51c.12.55.32,1.44.32,2.67,0,1.54-.3,5.54-4.05,8.54-2.46,1.97-5.89,3.11-6.76,3.4l-1.34-3.69c2.11-.61,6.48-1.91,7.48-4.12-.5.47-1.12.84-1.99,1.11-2.91.88-4.79-1.02-4.79-3.9,0-3.27,2.26-6.06,5.17-6.94.84-.25,1.32-.24,1.69-.24l-.02-1.03-10.88,3.29v-4.25l10.78-3.26-.05-2.27,4.45-1.34v2.29l6.14-1.86ZM79.99,72.39c-.03-.52-.17-1.52-1.47-1.13-.94.29-1.74,1.27-1.74,2.49,0,.64.32,1.98,1.76,1.54,1.12-.34,1.49-1.35,1.47-2.12l-.02-.79Z"/><path class="cls-5" d="M92.1,77.43c2.58-5.28,3.8-12,4.07-13.41l-3.23,1v-4.44l3.88-1.17c.15-1.24.22-2.12.32-4.57l4.55-1.11c-.17,1.81-.27,2.64-.5,4.35l1.79-.54c4.17-1.26,5.42,1.23,5.42,6.34,0,2.1-.25,5.77-1.19,8.23-.97,2.55-2.66,3.62-4.84,4.28-1.09.33-2.16.55-2.53.61l-.32-4.56c.84-.07,1.56-.15,2.19-.34.97-.29,1.47-.74,1.74-1.72.5-1.77.77-3.96.77-5.74,0-2.18-.2-3.1-1.86-2.58l-1.81.58c-.05.28-1.71,10.62-4.2,15.66l-4.22-.88ZM110.41,66.15c-.05-3.97-.42-7.16-2.76-10.15l3.75-3.02c2.91,3.59,3.33,7.61,3.53,10.95l-4.52,2.22Z"/><path class="cls-4" d="M122.78,52.19c-.35,1.91-.5,3.45-.57,5.36,2.14-1.92,4.52-3.39,6.98-4.13,5.32-1.61,6.88,1.85,6.88,4.73,0,7.15-6.58,10.05-12.22,11.76-2.21.67-3.68,1.01-4.37,1.16l-.52-4.36c1.02-.18,3.23-.63,5.19-1.23,5.29-1.6,7.4-3.68,7.4-6.1,0-2.23-1.99-2-3.03-1.69-2.31.7-4.99,2.55-6.43,4.69v.82l-4.3,1.14c0-2.95.07-6.88.57-11.08l4.42-1.07ZM132.15,50.55c-.97-.13-4.15-.5-10.98,1.06l.77-4.49c4.25-1.18,7.48-1.76,11.25-1.75l-1.04,5.18Z"/><path class="cls-8" d="M145.63,39.81l-.63,16.35-4.09,1.24-.63-15.97,5.35-1.62ZM140.48,59.44l4.96-1.5v4.93l-4.96,1.5v-4.93Z"/><circle class="cls-7" cx="21.24" cy="32.31" r="4.4"/><circle class="cls-11" cx="57.18" cy="21.38" r="4.4"/><circle class="cls-10" cx="93.75" cy="10.4" r="4.4"/></g></svg>