<?xml version="1.0" encoding="utf-8"?>
<!-- Generator: Adobe Illustrator 27.3.1, SVG Export Plug-In . SVG Version: 6.00 Build 0)  -->
<svg version="1.1" id="_レイヤー_2" xmlns="http://www.w3.org/2000/svg" xmlns:xlink="http://www.w3.org/1999/xlink" x="0px"
	 y="0px" viewBox="0 0 640 224.7" style="enable-background:new 0 0 640 224.7;" xml:space="preserve">
<style type="text/css">
	.st0{fill:#FFFFFF;}
</style>
<g id="_レイアウト">
	<g>
		<g>
			<g>
				<path class="st0" d="M96.9,67.8C89,87,82.6,102.3,77.8,113.5c-4.9,11.5-14.2,13-17.6,13.5v0.6c2.1,0,4-0.2,5.9-0.3
					c2.2-0.1,4.4-0.3,6.8-0.3c3.3,0,7,0.1,10.5,0.3c3.2,0.1,6.5,0.3,9.6,0.3V127c-3.1,0-9-0.6-11.8-4.6c-1.9-2.7-1.9-6.3-0.1-10.7
					l17.7-43.3l8.3-20.5l12.3-30.2c0.1-0.3,0.4-0.5,0.7-0.5h0c0.3,0,0.6,0.2,0.7,0.5l23,53.6l14.8,33.3l1.7,4.6
					c2.1,5.8,2.1,10.3-0.1,13.4c-1.8,2.6-5.2,4-9.7,4.2v0.7c3.2,0,7.9-0.2,12.5-0.3c5-0.1,10.1-0.3,13.3-0.3c2.7,0,5.5,0.1,8.3,0.3
					c2.5,0.1,5,0.3,7.5,0.3v-0.7c-9.5-0.4-13.7-7.2-16.8-14.5L127.1,0h-2.4c-0.5,1.3-2.2,5.4-4.4,10.7
					C115.8,21.8,96.9,67.8,96.9,67.8L96.9,67.8z"/>
				<g>
					<path class="st0" d="M116.1,157c3-0.2,3.6,2.1,6,2c1.3,0,2.1-0.4,2.9-1.3l0.1,0.1c-0.4,1.2-1.5,2.5-3.2,2.6c-3,0.1-3.5-2-6-2
						c-1.5,0-2.5,0.7-3.1,1.5l-0.2-0.1C113,159.4,114,157.2,116.1,157L116.1,157z"/>
					<path class="st0" d="M161.9,149.3c0,0-0.1,2-0.1,7.4c0,5.3,0.1,7.4,0.1,7.4c0,1.6,0.5,2,1.7,2.2c0.2,0,0.5,0,0.5,0v0.5
						c0,0-1.6,0-5.1,0c-1.1,0-2.8,0-2.8,0v-0.5c0,0,0.2,0,0.5,0c1.2-0.2,1.6-0.5,1.7-2.2c0,0,0.1-2.1,0.1-7.4c0-3.3-0.1-6.2-0.1-8.1
						l-7.4,18.3h-0.3l-8.9-16.5c0,1.8,0,3.4,0,6.3c0,5.3,0.1,7.4,0.1,7.4c0,1.6,1.2,2,2.4,2.1c0.2,0,0.5,0,0.5,0v0.5
						c0,0-2.1,0-3.2,0c-1.2,0-3.3,0-3.3,0v-0.5c0,0,0.2,0,0.5,0c1.2-0.2,2.3-0.5,2.4-2.1c0,0,0.1-2.1,0.1-7.4c0-5.6-0.1-7.4-0.1-7.4
						c0-1.6-1-2.1-2.1-2.2c-0.2,0-0.5,0-0.5,0v-0.5c0.9,0,4.6,0,5.2,0l8.5,15.5l6.4-15.5c3.1,0,4.8,0,5.7,0v0.5c0,0-0.2,0-0.5,0
						C162.4,147.2,161.9,147.7,161.9,149.3L161.9,149.3z"/>
					<path class="st0" d="M172.1,153.3L172.1,153.3z M188.2,153.3c0,0-0.4,0-1.4,0h-0.1c-1,0-2.9,0-2.9,0h-0.1v0.4h0.2
						c1.1,0,1.9,0.3,0.9,2.6l-3,7.3l-3.5-8c-0.4-1,0-2,1.5-1.9v-0.5h-0.3c0,0-1.7,0-3.6,0h-0.1c-1.4,0-3.4,0-3.7,0v0.4
						c0.7,0.1,1.4-0.2,2.5,2c0.2,0.5,1.5,3.1,5.4,11.5l-0.1,0.2c-1.2,2.9-2.6,3.8-3.9,4.1c-1.1,0.2-2.8,0-3.6-0.6l-0.2,0.3
						c0.7,1.1,1.9,1.8,3.5,1.7c1.7-0.1,3.2-1.2,4.3-3.5c0.2-0.6,0.5-1.2,0.8-2l4.8-11.7c0.7-1.7,1.5-2,2.5-2h0.1v-0.4L188.2,153.3
						L188.2,153.3z"/>
					<path class="st0" d="M231.7,156.4c0,3.3-1.1,6.5-3.6,8.3c-1.5,1.1-3.1,1.8-5.9,2c-2,0.2-4.7,0-6.3,0l-4.7,0v-0.3
						c0,0,0.2,0,0.5,0c1.2-0.2,1.9-0.3,1.9-2.2c0,0,0.1-2.6,0.1-7.5c0-5.6-0.1-7.4-0.1-7.4c0-1.9-0.8-2-1.9-2.2c-0.2,0-0.5,0-0.5,0
						v-0.5l3.2,0h0.7c2.3,0,4.7-0.3,7.6,0C228.6,147.1,231.7,150.9,231.7,156.4L231.7,156.4z M215.5,166.7L215.5,166.7z
						 M221.3,147.2c-1.1-0.2-2.8-0.2-4.1,0.1c0,1.2-0.1,4.7-0.1,9.4c0,3.3,0,5.8,0,7.6c0,1.5,0.7,1.9,2,2c2.2,0.1,4.1-0.6,5.4-1.6
						c1.9-1.4,3-4.3,3.1-8.1C227.8,150.8,225.1,147.7,221.3,147.2L221.3,147.2z"/>
					<path class="st0" d="M255.1,163.8l0.4,0.2c-0.9,1.9-2.9,3.4-6.3,3.3c-3.9-0.1-7.3-2.9-7.4-7.2c-0.1-4.3,2.9-7.4,7.4-7.3
						c3.3,0,6.2,1.8,6.6,5l-10.6,0c-0.1,0.7-0.2,1.5-0.1,2.3c0.3,3.1,2.2,5.2,4.9,5.4C252.3,165.7,254.3,164.9,255.1,163.8
						L255.1,163.8z M245.4,157.2h7.2c-0.2-1.8-1-3.9-3.4-3.9C247.2,153.3,245.9,155,245.4,157.2L245.4,157.2z"/>
					<path class="st0" d="M280.8,166.3v0.5H276c-0.1-0.5-0.1-1-0.1-1.6c-1.1,1.2-3.1,2.1-5.1,2.2c-3.5,0.2-5-1.9-5.2-3.5
						c-0.2-2,0.5-4.1,5.2-5.5c1.5-0.4,4.7-1.1,5.1-2.8c0-0.2,0-0.3,0-0.6c0-0.6-0.2-0.9-0.6-1.3c-0.6-0.4-1.6-0.5-2.5-0.4
						c-2,0.2-3.9,1.7-5,4.5h-0.4l-0.9-3.2c0.7-0.6,2.3-1.3,4.2-1.6c2.9-0.6,7.7-0.4,8,3.3c0.1,0.9,0.1,1.9,0.1,2.8
						c0,3.1,0.1,5.1,0.1,5.4l0,0c0,1.2,0.8,1.6,1.6,1.8C280.7,166.3,280.8,166.3,280.8,166.3L280.8,166.3z M275.9,164.3
						c-0.1-1.3-0.1-2.8-0.1-4.3v-2.8c-0.4,0.6-1.2,0.9-3.4,1.7c-3.5,1.2-3.7,3.3-3.5,4.4c0.3,1.8,1.9,2.5,3.6,2.4
						C273.9,165.7,275.2,165.1,275.9,164.3L275.9,164.3z"/>
					<path class="st0" d="M301.9,153.5l-0.9,3.2h-0.2c-0.4-1.5-1.6-2-2.4-2.2c-0.6-0.1-2.3-0.2-3.4,1v4.7c0,2.7,0,4.5,0,4.5
						c0.1,1.4,0.9,1.5,2.8,1.6v0.5h-0.1l-3.1,0h-0.1c-3.1,0-4.2,0-4.2,0h-0.1v-0.5c1.2-0.1,1.6-0.2,1.6-1.6c0,0,0.1-1.8,0.1-4.5
						c0-2.5,0-3.8,0-4.6c0-0.4,0-0.8-0.5-0.8c-0.4-0.1-0.8,0-1.2,0.1l-0.2-0.5c1-0.3,4.2-1.3,5-1.7l0.1,0.1v2c1-1.2,2.6-1.8,3.5-1.9
						C299.8,152.7,301.4,153,301.9,153.5L301.9,153.5z"/>
					<path class="st0" d="M347.9,149.3c0,0-0.1,2-0.1,7.4c0,5.3,0.1,7.4,0.1,7.4c0,1.6,0.5,2,1.7,2.2c0.2,0,0.5,0,0.5,0v0.5
						c0,0-1.6,0-5.1,0c-1.1,0-2.8,0-2.8,0v-0.5c0,0,0.2,0,0.5,0c1.2-0.2,1.6-0.5,1.7-2.2c0,0,0.1-2.1,0.1-7.4c0-3.3-0.1-6.2-0.1-8.1
						l-7.4,18.3h-0.3l-8.9-16.5c0,1.8,0,3.4,0,6.3c0,5.3,0.1,7.4,0.1,7.4c0,1.6,1.2,2,2.4,2.1c0.2,0,0.5,0,0.5,0v0.5
						c0,0-2.1,0-3.2,0c-1.2,0-3.3,0-3.3,0v-0.5c0,0,0.2,0,0.5,0c1.2-0.2,2.3-0.5,2.4-2.1c0,0,0.1-2.1,0.1-7.4c0-5.6-0.1-7.4-0.1-7.4
						c0-1.6-1-2.1-2.1-2.2c-0.2,0-0.5,0-0.5,0v-0.5c0.9,0,4.6,0,5.2,0l8.5,15.5l6.4-15.5c3.1,0,4.8,0,5.7,0v0.5c0,0-0.2,0-0.5,0
						C348.5,147.2,348,147.7,347.9,149.3L347.9,149.3z"/>
					<path class="st0" d="M358.8,159.9c0-4.3,3.2-7.2,7.8-7.2c4.6,0,7.5,2.9,7.5,7.3c-0.1,4-2.9,7.2-7.6,7.2
						C362,167.2,358.7,164.1,358.8,159.9L358.8,159.9z M370.8,159.9c-0.1-3.7-1.6-6.6-4.4-6.5c-2.8,0.2-4.3,3.3-4.2,6.8
						c0,3.4,1.7,6.6,4.6,6.5C369.5,166.4,370.8,163.4,370.8,159.9z"/>
					<path class="st0" d="M410.9,166.3v0.5h-0.1c0,0-1.1,0-2,0h-0.1c-3.1,0-4.2,0-4.2,0h-0.1v-0.5c1.2-0.1,1.6-0.2,1.6-1.6
						c0-0.2,0-0.9,0-4.4c0-3.1-0.1-5.3-2.6-5.8c-1.2-0.2-3.2,0.2-4.6,1.5c0.2,0.8,0.2,1.7,0.2,2.7c0,1.9,0,4,0,6
						c0.1,1.4,0.4,1.5,1.6,1.6v0.5h-0.1c0,0-1.1,0-2,0h-0.1c-3.1,0-4.2,0-4.2,0h-0.1v-0.5c1.2-0.1,1.6-0.2,1.6-1.6v-4.1
						c0-3.2,0.1-5.6-2.5-6c-1.4-0.2-3.5,0.2-4.9,1.8c0,1.1,0,2.4,0,3.5c0,3,0,4.8,0,4.8c0,1.4,0.4,1.5,1.6,1.6v0.5h-0.1
						c0,0-1.1,0-2.1,0h-0.1c-2.9,0-4.2,0-4.2,0h-0.1v-0.5c1.2-0.1,1.6-0.2,1.7-1.6c0,0,0.1-1.8,0.1-4.8c0-3,0-3.6-0.1-4.3
						c0-0.4,0-0.8-0.5-0.9c-0.4,0-0.9,0.1-1.3,0.2l-0.1-0.5c1.8-0.5,3.7-1.2,5.2-1.7l0.1,0.1c0,0,0,1.3,0,3c1.4-1.9,3.7-3.1,5.9-3.1
						c1.7,0,2.9,0.4,3.8,1.5c0.3,0.3,0.5,0.8,0.6,1.3c1.4-1.6,3.6-2.7,5.5-2.7c1.7-0.1,3.2,0.4,4.2,1.6c0.8,1,0.9,2.4,1,4.5
						c0,1.9,0,4,0,6C409.3,166.1,409.6,166.2,410.9,166.3L410.9,166.3z"/>
					<path class="st0" d="M432.9,163.8l0.4,0.2c-0.9,1.9-2.9,3.4-6.3,3.3c-3.9-0.1-7.3-2.9-7.4-7.2c-0.1-4.3,2.9-7.4,7.4-7.3
						c3.3,0,6.2,1.8,6.6,5l-10.6,0c-0.1,0.7-0.2,1.5-0.1,2.3c0.3,3.1,2.2,5.2,4.9,5.4C430.1,165.7,432,164.9,432.9,163.8
						L432.9,163.8z M423.1,157.2h7.2c-0.2-1.8-1-3.9-3.4-3.9C424.9,153.3,423.6,155,423.1,157.2z"/>
					<path class="st0" d="M460.7,166.3v0.5h-0.1c0,0-1.1,0-2,0h-0.1c-3.1,0-4.2,0-4.2,0h-0.1v-0.5c1.2-0.1,1.6-0.2,1.6-1.6v-4.1
						c0-3.2,0.1-5.6-2.5-6c-1.4-0.2-3.7,0.2-5.1,2c0,1.1,0,2.2,0,3.3c0,3,0,4.8,0,4.8c0,1.4,0.4,1.5,1.6,1.6v0.5h-0.1
						c0,0-1.1,0-2.1,0h-0.1c-2.9,0-4.2,0-4.2,0h-0.1v-0.5c1.2-0.1,1.6-0.2,1.7-1.6c0,0,0.1-1.8,0.1-4.8c0-2.9,0-3.6-0.1-4.3
						c0-0.4,0-0.8-0.5-0.8c-0.4,0-0.7,0-1.1,0.1l-0.1-0.5c2.2-0.7,3.3-1.1,5-1.7l0.1,0.1c0,0,0,1.3,0,3c1.4-1.8,3.8-3.1,6-3.1
						c1.7,0,2.9,0.4,3.8,1.5c0.8,0.9,0.9,2.5,1,4.6c0,1.9,0,4,0,6C459.1,166.1,459.4,166.2,460.7,166.3L460.7,166.3z"/>
					<path class="st0" d="M481,165.4c-0.7,0.9-2.4,2.1-4.8,1.9c-3-0.2-4.5-1.9-4.5-5.2v-8.3h-2.5v-0.4c2.5-0.2,4.9-1.6,5.3-5h0.5
						l0,4.9h3.8v0.6h-3.8l0,3.8v3c0,2.3,0,4.6,2.2,5.1c1.3,0.3,2.7,0,3.7-0.7L481,165.4L481,165.4z"/>
					<path class="st0" d="M490.5,165.4l0.9-3.5h0.2c0.7,2.5,2.7,4.8,5.2,4.8c2.5,0,2.7-1.9,2.5-2.8c-0.2-1.4-1.6-2.1-5.1-3.6
						c-2.2-1-3.1-2.4-2.8-4.1c0.2-1.4,1.2-3,4.1-3.4c2.1-0.2,4.7,0.4,5.5,1.2l-0.6,3h-0.2c-1-2.3-2.4-3.9-4.6-3.7
						c-1.3,0.1-2.1,1.1-2,2.2c0.1,0.8,0.6,1.5,2.1,2.2c0.9,0.5,1.5,0.7,2.4,1c3,1.2,4,2.8,3.7,4.9c-0.3,1.8-2.3,4-6.4,3.6
						C493.2,167,491.3,166.2,490.5,165.4L490.5,165.4z"/>
					<path class="st0" d="M516.9,157c3-0.2,3.6,2.1,6,2c1.3,0,2.1-0.4,2.9-1.3l0.1,0.1c-0.4,1.2-1.5,2.5-3.2,2.6c-3,0.1-3.5-2-6-2
						c-1.5,0-2.5,0.7-3.1,1.5l-0.2-0.1C513.9,159.4,514.9,157.2,516.9,157L516.9,157z"/>
				</g>
				<path class="st0" d="M320,185.4c-99.8,0-320,4.5-320,4.5l320,4.5l320-4.5C640,189.9,419.8,185.4,320,185.4z"/>
				<polygon class="st0" points="194.1,200 320,204.5 445.9,200 				"/>
				<polygon class="st0" points="236.5,210.1 320,214.6 403.5,210.1 				"/>
				<polygon class="st0" points="271.7,220.1 320,224.7 368.3,220.1 				"/>
				<path class="st0" d="M251.2,126.8v0.7c3,0,13.8-0.2,20.9-0.2c7.7,0,18,0.1,20.9,0.2v-0.7c-0.6,0-1.4-0.1-2.2-0.2
					c-7.9-1-11.7-3.3-11.9-13.7c0-0.1-0.4-15.5-0.4-53.9c0-30.3,0.2-45.2,0.3-50.8c0-1.4,0-2.3,0-2.7c0-0.4,0.3-0.8,0.8-0.8h4.9
					c22.8,0,31.8,10.2,40.9,23.7l0.5-0.2l-8.1-24.1h-92.9L217,29l0.5,0.2c9.3-14.7,20.2-24.5,42.5-24.5h4.4c0.4,0,0.7,0.3,0.8,0.7
					c0.2,2.5,0.6,16.7,0.6,53.6c0,38.5-0.6,53.8-0.6,54c-0.2,10.4-3.8,12.6-11.7,13.6C252.6,126.8,251.7,126.8,251.2,126.8
					L251.2,126.8z"/>
				<path class="st0" d="M408.5,65.4c1.4,0,2.8,0.1,4.2,0.2c15,1.7,23.4,14.2,34.1,30.1c3.7,5.4,7.5,11.1,12,17
					c15,19.3,28.6,21.3,37.5,21.2c14.6-0.2,21.3-7.9,22.9-10.1l-0.7-0.5c-1.9,1.3-7.7,4.1-16.9,3.6c-10-0.6-16.7-3.7-24.4-11.4
					c-6.7-6.9-14.1-16.8-22.7-30.3c-3.5-5.5-7.2-10.2-11.1-13.9c-0.2-0.2-0.3-0.4-0.2-0.7c0-0.3,0.2-0.5,0.5-0.6
					c13.5-5.6,21.8-16.7,22.3-29.7c0.5-10.4-2.6-19.2-8.9-25.7C449,6.1,435.7,1.8,418.6,2.1c-5.8,0-12.7,0.6-18.9,1.1
					c-5.2,0.4-10,0.8-13.4,0.8h-0.8c-5.6,0-15.9-0.1-18.8-0.2v0.6c0.6,0,1.4,0.1,2.2,0.2c8.2,1.1,11.3,5.1,11.7,15.2
					c0,0.1,0.6,10.9,0.6,46.2c0,33.6-0.6,47.6-0.6,47.7c-0.2,11-4.2,12.1-11.9,13.1c-0.8,0.1-1.6,0.2-2.2,0.2v0.7
					c2.9,0,13.3-0.2,20.7-0.2c7.2,0,17.4,0.1,20.3,0.2v-0.7c-0.6,0-1.4-0.1-2.2-0.2c-7.5-1-11.5-2-11.7-13.1
					c0-0.1-0.4-13.8-0.4-43.1c0-0.2,0.1-0.4,0.3-0.6C396.7,67.1,402.3,65.4,408.5,65.4L408.5,65.4z M440.6,68.4
					c-0.2,0-0.3-0.1-0.5-0.2c-8.5-6.7-16.6-7.8-24-8c-8.2-0.2-15.2,2.4-21.5,7.8c-0.2,0.2-0.6,0.2-0.8,0.1c-0.3-0.1-0.4-0.4-0.4-0.7
					v-1.5c0-28.1,0.2-49.6,0.4-58.5c0-0.3,0.2-0.6,0.5-0.7c5.8-2.1,13.6-3.3,21.9-3.3c12,0,21.8,3.6,28.2,10.3
					c6.4,6.7,9.5,16.5,8.9,28.3c-0.4,10.6-5,20.7-12.1,26.2C440.9,68.3,440.8,68.4,440.6,68.4L440.6,68.4z"/>
				<path class="st0" d="M228.3,61.8c-1.1,3-3.5,5.2-6.7,6.7l-0.4-0.4c2.3-1.6,3.7-4,4.2-6.2H212v-0.5h16
					C227.9,61.3,228.3,61.8,228.3,61.8z M218.3,63.9h2.3v2.4c0,4.4-1.2,8.1-7,10.1l-0.4-0.4c4.4-2.2,5-5.7,5-9.7
					C218.3,66.2,218.3,63.9,218.3,63.9z"/>
				<path class="st0" d="M337.5,71.5c-2.1-1.8-4.5-3.3-7.5-4.8v9.6h-2.2V59.4h2.2V66c3.5,1,6.3,2.1,8.9,3.5L337.5,71.5L337.5,71.5z"
					/>
				<path class="st0" d="M487.1,60.4h2.2v9.4h-2.2C487.1,69.8,487.1,60.4,487.1,60.4z M498.3,60.1V67c0,4.3-1.7,8.2-7.9,9.6
					l-0.3-0.5c4.9-1.6,6-5.4,6-9.1v-6.9L498.3,60.1L498.3,60.1z"/>
				<path class="st0" d="M558.2,4c-1.1,0-2.2,0-3.3,0c-6.6,0-14.3-0.1-16.9-0.2v0.7c0.6,0,1.4,0.1,2.2,0.2c5.5,0.7,8.9,2,10.5,6.3
					c0.7,2.1,1.1,4.8,1.1,8.5c0,0,0.2,3.5,0.3,9.3c0.1,6.4,0.3,18,0.3,37c0,33.1-0.6,46.1-0.6,46.2c0,2.8-0.3,5-0.7,6.8
					c-1.4,5.4-4.9,7-11,7.8c-0.8,0.1-1.6,0.2-2.2,0.2v0.7c2.6,0,10.3-0.1,16.9-0.2c1.1,0,2.2,0,3.3,0c7.7,0,17.7,0.1,20.5,0.2v-0.7
					c-0.6,0-1.4-0.1-2.2-0.2c-5.9-0.8-9.5-2.3-11-7.3c-0.5-1.9-0.8-4.3-0.9-7.4V19.5c0.1-3.9,0.5-6.7,1.3-8.8c1.7-4,5.2-5.3,10.6-6
					c0.8-0.1,1.6-0.2,2.2-0.2V3.8C575.9,3.8,565.9,4,558.2,4L558.2,4z"/>
				<path class="st0" d="M80.2,63.3c7.9,0,17.5,3.8,29.2,8.4c8.4,3.3,17.8,7,28.5,10.1c24.9,7.4,38.8,2,43.6-0.7
					c6.3-3.5,7.3-6.2,7.3-11.3v0c0-0.2,0-0.9,0-1.5l-0.3,0c0.1,0.6,0,1,0,1.1c-0.5,2.1-2.4,4-10.3,6.4c-5.7,1.8-12.8,1.7-22.9-0.4
					c-9.6-1.8-21.4-5.7-33.9-9.9c-19.7-6.6-32.1-8.8-41.3-7.3c0,0-4.6,0.8-8.2,2.6c-6.4,3.2-8,7.9-8.4,9.7c0,0,0,0,0,0l0.8,0.2
					c1.6-2.3,6.7-5.9,11.8-7.1C77.4,63.4,78.8,63.3,80.2,63.3z"/>
			</g>
		</g>
	</g>
</g>
</svg>
