<?xml version="1.0" encoding="UTF-8"?>
<svg id="_レイヤー_2" data-name=" レイヤー 2" xmlns="http://www.w3.org/2000/svg" version="1.1" viewBox="0 0 640 224.7">
  <defs>
    <style>
      .cls-1 {
        fill: #e0737e;
      }

      .cls-1, .cls-2 {
        stroke-width: 0px;
      }

      .cls-2 {
        fill: #003856;
      }
    </style>
  </defs>
  <g id="_レイアウト" data-name=" レイアウト">
    <g>
      <path class="cls-2" d="M96.9,67.8c-7.9,19.2-14.3,34.5-19.1,45.7-4.9,11.5-14.2,13-17.6,13.5v.6c2.1,0,4-.2,5.9-.3,2.2-.1,4.4-.3,6.8-.3s7,.1,10.5.3c3.2.1,6.5.3,9.6.3v-.5c-3.1,0-9-.6-11.8-4.6-1.9-2.7-1.9-6.3,0-10.7l17.7-43.3,8.3-20.5,12.3-30.2c.1-.3.4-.5.7-.5h0c.3,0,.6.2.7.5l23,53.6,14.8,33.3,1.7,4.6c2.1,5.8,2.1,10.3,0,13.4-1.8,2.6-5.2,4-9.7,4.2v.7c3.2,0,7.9-.2,12.5-.3,5-.1,10.1-.3,13.3-.3s5.5.1,8.3.3c2.5.1,5,.3,7.5.3v-.7c-9.5-.4-13.7-7.2-16.8-14.5L127.1,0h-2.4c-.5,1.3-2.2,5.4-4.4,10.7-4.5,11.1-23.4,57.1-23.4,57.1h0Z"/>
      <g>
        <path class="cls-2" d="M116.1,157c3-.2,3.6,2.1,6,2,1.3,0,2.1-.4,2.9-1.3h.1c-.4,1.3-1.5,2.7-3.2,2.7-3,0-3.5-2-6-2-1.5,0-2.5.7-3.1,1.5h-.2c.3-.7,1.3-2.9,3.4-3h0Z"/>
        <path class="cls-2" d="M161.9,149.3s0,2,0,7.4,0,7.4,0,7.4c0,1.6.5,2,1.7,2.2.2,0,.5,0,.5,0v.5s-1.6,0-5.1,0-2.8,0-2.8,0v-.5s.2,0,.5,0c1.2-.2,1.6-.5,1.7-2.2,0,0,0-2.1,0-7.4s0-6.2,0-8.1l-7.4,18.3h-.3l-8.9-16.5c0,1.8,0,3.4,0,6.3,0,5.3,0,7.4,0,7.4,0,1.6,1.2,2,2.4,2.1.2,0,.5,0,.5,0v.5s-2.1,0-3.2,0-3.3,0-3.3,0v-.5s.2,0,.5,0c1.2-.2,2.3-.5,2.4-2.1,0,0,0-2.1,0-7.4s0-7.4,0-7.4c0-1.6-1-2.1-2.1-2.2-.2,0-.5,0-.5,0v-.5c.9,0,4.6,0,5.2,0l8.5,15.5,6.4-15.5c3.1,0,4.8,0,5.7,0v.5s-.2,0-.5,0c-1.2.2-1.6.6-1.7,2.2h0Z"/>
        <path class="cls-2" d="M172.1,153.3h0ZM188.2,153.3s-.4,0-1.4,0h-.1c-1,0-2.9,0-2.9,0h-.1v.4h.2c1.1,0,1.9.3.9,2.6l-3,7.3-3.5-8c-.4-1,0-2,1.5-1.9v-.5h-.3s-1.7,0-3.6,0h0c-1.4,0-3.4,0-3.7,0v.4c.7,0,1.4-.2,2.5,2,.2.5,1.5,3.1,5.4,11.5v.2c-1.3,2.9-2.7,3.8-3.9,4.1-1.1.2-2.8,0-3.6-.6l-.2.3c.7,1.1,1.9,1.8,3.5,1.7,1.7,0,3.2-1.2,4.3-3.5.2-.6.5-1.2.8-2l4.8-11.7c.7-1.7,1.5-2,2.5-2h0v-.4h-.2,0Z"/>
        <path class="cls-2" d="M231.7,156.4c0,3.3-1.1,6.5-3.6,8.3-1.5,1.1-3.1,1.8-5.9,2-2,.2-4.7,0-6.3,0h-4.7s0-.3,0-.3c0,0,.2,0,.5,0,1.2-.2,1.9-.3,1.9-2.2,0,0,0-2.6,0-7.5s0-7.4,0-7.4c0-1.9-.8-2-1.9-2.2-.2,0-.5,0-.5,0v-.5h3.2s.7,0,.7,0c2.3,0,4.7-.3,7.6,0,5.9.5,9,4.3,8.9,9.8h0ZM215.5,166.7h0ZM221.3,147.2c-1.1-.2-2.8-.2-4.1,0,0,1.2,0,4.7,0,9.4s0,5.8,0,7.6c0,1.5.7,1.9,2,2,2.2.1,4.1-.6,5.4-1.6,1.9-1.4,3-4.3,3.1-8.1,0-5.7-2.6-8.9-6.4-9.3h0Z"/>
        <path class="cls-2" d="M255.1,163.8l.4.2c-.9,1.9-2.9,3.4-6.3,3.3-3.9,0-7.3-2.9-7.4-7.2-.1-4.3,2.9-7.4,7.4-7.3,3.3,0,6.2,1.8,6.6,5h-10.6c-.1.8-.2,1.6,0,2.4.3,3.1,2.2,5.2,4.9,5.4,2.2.2,4.2-.7,5-1.7h0ZM245.4,157.2h7.2c-.2-1.8-1-3.9-3.4-3.9s-3.3,1.7-3.8,3.9h0Z"/>
        <path class="cls-2" d="M280.8,166.3v.5h-4.8c0-.5,0-1-.1-1.6-1.1,1.2-3.1,2.1-5.1,2.2-3.5.2-5-1.9-5.2-3.5-.2-2,.5-4.1,5.2-5.5,1.5-.4,4.7-1.1,5.1-2.8,0-.2,0-.3,0-.6,0-.6-.2-.9-.6-1.3-.6-.4-1.6-.5-2.5-.4-2,.2-3.9,1.7-5,4.5h-.4l-.9-3.2c.7-.6,2.3-1.3,4.2-1.6,2.9-.6,7.7-.4,8,3.3,0,.9.1,1.9.1,2.8,0,3.1,0,5.1.1,5.4h0c0,1.2.8,1.6,1.6,1.8.2,0,.4,0,.4,0h0ZM275.9,164.3c0-1.3,0-2.8,0-4.3v-2.8c-.4.6-1.2.9-3.4,1.7-3.5,1.2-3.7,3.3-3.5,4.4.3,1.8,1.9,2.5,3.6,2.4,1.4,0,2.7-.6,3.4-1.4h0Z"/>
        <path class="cls-2" d="M301.9,153.5l-.9,3.2h-.2c-.4-1.5-1.6-2-2.4-2.2-.6-.1-2.3-.2-3.4,1v4.7c0,2.7,0,4.5,0,4.5,0,1.4.9,1.5,2.8,1.6v.5h-3.3s0,0,0,0c-3.1,0-4.2,0-4.2,0h-.1v-.5c1.2,0,1.6-.2,1.6-1.6,0,0,0-1.8,0-4.5s0-3.8,0-4.6c0-.4,0-.8-.5-.8-.4,0-.8,0-1.2,0l-.2-.5c1-.3,4.2-1.3,5-1.7h0v2.1c1-1.2,2.6-1.8,3.5-1.9,1.3-.2,2.9.2,3.4.6h0Z"/>
        <path class="cls-2" d="M347.9,149.3s0,2,0,7.4,0,7.4,0,7.4c0,1.6.5,2,1.7,2.2.2,0,.5,0,.5,0v.5s-1.6,0-5.1,0-2.8,0-2.8,0v-.5s.2,0,.5,0c1.2-.2,1.6-.5,1.7-2.2,0,0,0-2.1,0-7.4s0-6.2,0-8.1l-7.4,18.3h-.3l-8.9-16.5c0,1.8,0,3.4,0,6.3,0,5.3,0,7.4,0,7.4,0,1.6,1.2,2,2.4,2.1.2,0,.5,0,.5,0v.5s-2.1,0-3.2,0-3.3,0-3.3,0v-.5s.2,0,.5,0c1.2-.2,2.3-.5,2.4-2.1,0,0,0-2.1,0-7.4s0-7.4,0-7.4c0-1.6-1-2.1-2.1-2.2-.2,0-.5,0-.5,0v-.5c.9,0,4.6,0,5.2,0l8.5,15.5,6.4-15.5c3.1,0,4.8,0,5.7,0v.5s-.2,0-.5,0c-1.2.2-1.6.6-1.7,2.2h0Z"/>
        <path class="cls-2" d="M358.8,159.9c0-4.3,3.2-7.2,7.8-7.2s7.5,2.9,7.5,7.3c0,4-2.9,7.2-7.6,7.2s-7.7-3.1-7.6-7.3h0ZM370.8,159.9c0-3.7-1.6-6.6-4.4-6.5-2.8.2-4.3,3.3-4.2,6.8,0,3.4,1.7,6.6,4.6,6.5,2.8-.2,4.1-3.2,4.1-6.8Z"/>
        <path class="cls-2" d="M410.9,166.3v.5h-.1s-1.1,0-2,0h0c-3.1,0-4.2,0-4.2,0h-.1v-.5c1.2,0,1.6-.2,1.6-1.6,0-.2,0-.9,0-4.4,0-3.1,0-5.3-2.6-5.8-1.2-.2-3.2.2-4.6,1.5.2.8.2,1.7.2,2.7,0,1.9,0,4,0,6,0,1.4.4,1.5,1.6,1.6v.5h-.1s-1.1,0-2,0h0c-3.1,0-4.2,0-4.2,0h-.1v-.5c1.2,0,1.6-.2,1.6-1.6v-4.1c0-3.2,0-5.6-2.5-6-1.4-.2-3.5.2-4.9,1.8,0,1.1,0,2.4,0,3.5,0,3,0,4.8,0,4.8,0,1.4.4,1.5,1.6,1.6v.5h-.1s-1.1,0-2.1,0h0c-2.9,0-4.2,0-4.2,0h-.1v-.5c1.2,0,1.6-.2,1.7-1.6,0,0,0-1.8,0-4.8s0-3.6,0-4.3c0-.4,0-.8-.5-.9-.4,0-.9,0-1.3.2v-.5c1.7-.5,3.6-1.2,5.1-1.7h0c0,0,0,1.4,0,3.1,1.4-1.9,3.7-3.1,5.9-3.1s2.9.4,3.8,1.5c.3.3.5.8.6,1.3,1.4-1.6,3.6-2.7,5.5-2.7,1.7,0,3.2.4,4.2,1.6.8,1,.9,2.4,1,4.5,0,1.9,0,4,0,6,0,1.4.4,1.5,1.6,1.6h0Z"/>
        <path class="cls-2" d="M432.9,163.8l.4.2c-.9,1.9-2.9,3.4-6.3,3.3-3.9,0-7.3-2.9-7.4-7.2-.1-4.3,2.9-7.4,7.4-7.3,3.3,0,6.2,1.8,6.6,5h-10.6c-.1.8-.2,1.6,0,2.4.3,3.1,2.2,5.2,4.9,5.4,2.2.2,4.2-.7,5-1.7h0ZM423.1,157.2h7.2c-.2-1.8-1-3.9-3.4-3.9s-3.3,1.7-3.8,3.9Z"/>
        <path class="cls-2" d="M460.7,166.3v.5h-.1s-1.1,0-2,0h0c-3.1,0-4.2,0-4.2,0h-.1v-.5c1.2,0,1.6-.2,1.6-1.6v-4.1c0-3.2,0-5.6-2.5-6-1.4-.2-3.7.2-5.1,2,0,1.1,0,2.2,0,3.3,0,3,0,4.8,0,4.8,0,1.4.4,1.5,1.6,1.6v.5h-.1s-1.1,0-2.1,0h0c-2.9,0-4.2,0-4.2,0h-.1v-.5c1.2,0,1.6-.2,1.7-1.6,0,0,0-1.8,0-4.8s0-3.6,0-4.3c0-.4,0-.8-.5-.8-.4,0-.7,0-1.1,0v-.5c2.1-.7,3.2-1.1,4.9-1.7h0c0,0,0,1.4,0,3.1,1.4-1.8,3.8-3.1,6-3.1s2.9.4,3.8,1.5c.8.9.9,2.5,1,4.6,0,1.9,0,4,0,6,0,1.4.4,1.5,1.6,1.6h0Z"/>
        <path class="cls-2" d="M481,165.4c-.7.9-2.4,2.1-4.8,1.9-3-.2-4.5-1.9-4.5-5.2v-8.3h-2.5v-.4c2.5-.2,4.9-1.6,5.3-5h.5v4.9s3.7,0,3.7,0v.6h-3.8v3.8s0,3,0,3c0,2.3,0,4.6,2.2,5.1,1.3.3,2.7,0,3.7-.7l.2.2h0Z"/>
        <path class="cls-2" d="M490.5,165.4l.9-3.5h.2c.7,2.5,2.7,4.8,5.2,4.8,2.5,0,2.7-1.9,2.5-2.8-.2-1.4-1.6-2.1-5.1-3.6-2.2-1-3.1-2.4-2.8-4.1.2-1.4,1.2-3,4.1-3.4,2.1-.2,4.7.4,5.5,1.2l-.6,3h-.2c-1-2.3-2.4-3.9-4.6-3.7-1.3.1-2.1,1.1-2,2.2,0,.8.6,1.5,2.1,2.2.9.5,1.5.7,2.4,1,3,1.2,4,2.8,3.7,4.9-.3,1.8-2.3,4-6.4,3.6-2.3-.2-4.2-1-5-1.8h0Z"/>
        <path class="cls-2" d="M516.9,157c3-.2,3.6,2.1,6,2,1.3,0,2.1-.4,2.9-1.3h.1c-.4,1.3-1.5,2.7-3.2,2.7-3,0-3.5-2-6-2-1.5,0-2.5.7-3.1,1.5h-.2c.3-.7,1.3-2.9,3.4-3h0Z"/>
      </g>
      <path class="cls-2" d="M320,185.4c-99.8,0-320,4.5-320,4.5l320,4.5,320-4.5s-220.2-4.5-320-4.5Z"/>
      <polygon class="cls-2" points="194.1 200 320 204.5 445.9 200 194.1 200"/>
      <polygon class="cls-2" points="236.5 210.1 320 214.6 403.5 210.1 236.5 210.1"/>
      <polygon class="cls-2" points="271.7 220.1 320 224.7 368.3 220.1 271.7 220.1"/>
      <path class="cls-2" d="M251.2,126.8v.7c3,0,13.8-.2,20.9-.2s18,.1,20.9.2v-.7c-.6,0-1.4,0-2.2-.2-7.9-1-11.7-3.3-11.9-13.7,0-.1-.4-15.5-.4-53.9s.2-45.2.3-50.8c0-1.4,0-2.3,0-2.7s.3-.8.8-.8h4.9c22.8,0,31.8,10.2,40.9,23.7l.5-.2-8.1-24.1h-92.9l-8,24.8.5.2c9.3-14.7,20.2-24.5,42.5-24.5h4.4c.4,0,.7.3.8.7.2,2.5.6,16.7.6,53.6s-.6,53.8-.6,54c-.2,10.4-3.8,12.6-11.7,13.6-.8.1-1.6.2-2.2.2h0Z"/>
      <path class="cls-2" d="M408.5,65.4c1.4,0,2.8,0,4.2.2,15,1.7,23.4,14.2,34.1,30.1,3.7,5.4,7.5,11.1,12,17,15,19.3,28.6,21.3,37.5,21.2,14.6-.2,21.3-7.9,22.9-10.1l-.7-.5c-1.9,1.3-7.7,4.1-16.9,3.6-10-.6-16.7-3.7-24.4-11.4-6.7-6.9-14.1-16.8-22.7-30.3-3.5-5.5-7.2-10.2-11.1-13.9-.2-.2-.3-.4-.2-.7,0-.3.2-.5.5-.6,13.5-5.6,21.8-16.7,22.3-29.7.5-10.4-2.6-19.2-8.9-25.7-8.2-8.4-21.5-12.7-38.6-12.4-5.8,0-12.7.6-18.9,1.1-5.2.4-10,.8-13.4.8h-.8c-5.6,0-15.9-.1-18.8-.2v.6c.6,0,1.4,0,2.2.2,8.2,1.1,11.3,5.1,11.7,15.2,0,0,.6,10.9.6,46.2s-.6,47.6-.6,47.7c-.2,11-4.2,12.1-11.9,13.1-.8.1-1.6.2-2.2.2v.7c2.9,0,13.3-.2,20.7-.2s17.4.1,20.3.2v-.7c-.6,0-1.4,0-2.2-.2-7.5-1-11.5-2-11.7-13.1,0-.1-.4-13.8-.4-43.1s0-.4.3-.6c3.2-2.8,8.8-4.4,15-4.4h0ZM440.6,68.4c-.2,0-.3,0-.5-.2-8.5-6.7-16.6-7.8-24-8-8.2-.2-15.2,2.4-21.5,7.8-.2.2-.6.2-.8.1-.3-.1-.4-.4-.4-.7v-1.5c0-28.1.2-49.6.4-58.5,0-.3.2-.6.5-.7,5.8-2.1,13.6-3.3,21.9-3.3,12,0,21.8,3.6,28.2,10.3,6.4,6.7,9.5,16.5,8.9,28.3-.4,10.6-5,20.7-12.1,26.2-.1.1-.3.2-.5.2h0Z"/>
      <path class="cls-2" d="M228.3,61.8c-1.1,3-3.5,5.2-6.7,6.7l-.4-.4c2.3-1.6,3.7-4,4.2-6.2h-13.5v-.5h16s.4.4.4.4ZM218.3,63.9h2.3v2.4c0,4.4-1.2,8.1-7,10.1l-.4-.4c4.4-2.2,5-5.7,5-9.7v-2.3Z"/>
      <path class="cls-2" d="M337.5,71.5c-2.1-1.8-4.5-3.3-7.5-4.8v9.6h-2.2v-16.8h2.2v6.6c3.5,1,6.3,2.1,8.9,3.5l-1.4,2h0Z"/>
      <path class="cls-2" d="M487.1,60.4h2.2v9.4h-2.2v-9.4ZM498.3,60.1v6.9c0,4.3-1.7,8.2-7.9,9.6l-.3-.5c4.9-1.6,6-5.4,6-9.1v-6.9h2.3Z"/>
      <path class="cls-2" d="M558.2,4c-1.1,0-2.2,0-3.3,0-6.6,0-14.3-.1-16.9-.2v.7c.6,0,1.4,0,2.2.2,5.5.7,8.9,2,10.5,6.3.7,2.1,1.1,4.8,1.1,8.5,0,0,.2,3.5.3,9.3.1,6.4.3,18,.3,37,0,33.1-.6,46.1-.6,46.2,0,2.8-.3,5-.7,6.8-1.4,5.4-4.9,7-11,7.8-.8.1-1.6.2-2.2.2v.7c2.6,0,10.3-.1,16.9-.2,1.1,0,2.2,0,3.3,0,7.7,0,17.7.1,20.5.2v-.7c-.6,0-1.4,0-2.2-.2-5.9-.8-9.5-2.3-11-7.3-.5-1.9-.8-4.3-.9-7.4V19.5c0-3.9.5-6.7,1.3-8.8,1.7-4,5.2-5.3,10.6-6,.8-.1,1.6-.2,2.2-.2v-.7c-2.8,0-12.9.2-20.5.2h0Z"/>
      <path class="cls-1" d="M80.2,63.3c7.9,0,17.5,3.8,29.2,8.4,8.4,3.3,17.8,7,28.5,10.1,24.9,7.4,38.8,2,43.6-.7,6.3-3.5,7.3-6.2,7.3-11.3h0c0-.2,0-.9,0-1.5h-.3c0,.7,0,1.1,0,1.1-.5,2.1-2.4,4-10.3,6.4-5.7,1.8-12.8,1.7-22.9-.4-9.6-1.8-21.4-5.7-33.9-9.9-19.7-6.6-32.1-8.8-41.3-7.3,0,0-4.6.8-8.2,2.6-6.4,3.2-8,7.9-8.4,9.7,0,0,0,0,0,0l.8.2c1.6-2.3,6.7-5.9,11.8-7.1,1.3-.3,2.7-.4,4.2-.4Z"/>
    </g>
  </g>
</svg>